<svg width="334" height="42" viewBox="0 0 334 42" fill="none" xmlns="http://www.w3.org/2000/svg">
<path fill-rule="evenodd" clip-rule="evenodd" d="M108.087 25.7085V18.243C107.279 18.243 106.526 18.2963 105.825 18.4324C105.825 18.3517 105.853 18.2704 105.853 18.1602C105.853 18.0536 105.88 17.9983 105.88 17.9434C105.88 17.8901 105.853 17.8073 105.853 17.6733C105.853 17.5631 105.825 17.4565 105.825 17.3737H112.046C112.019 17.5646 111.993 17.754 111.966 17.9449C111.993 18.1343 112.019 18.2963 112.046 18.4324C111.05 18.2963 110.323 18.243 109.866 18.243V25.7085C109.757 25.7085 109.596 25.6826 109.407 25.6826C109.191 25.6826 109.03 25.6826 108.922 25.6567C108.842 25.6826 108.707 25.6826 108.519 25.6826C108.329 25.6826 108.195 25.7085 108.087 25.7085ZM96.4546 22.5604V17.3737C96.7789 17.4286 97.0745 17.4565 97.3444 17.4565C97.6123 17.4565 97.9365 17.4286 98.2593 17.3737V22.0455C98.2593 22.4776 98.2865 22.8854 98.3666 23.2657C98.4214 23.6191 98.5292 23.9166 98.6636 24.108C99.0665 24.7326 99.6315 25.0306 100.413 25.0306C100.817 25.0306 101.168 24.9758 101.436 24.8392C101.706 24.7326 101.974 24.5152 102.191 24.2162C102.433 23.8907 102.568 23.483 102.621 23.0214C102.703 22.5604 102.73 22.0435 102.73 21.4738L102.728 17.3737C102.783 17.3737 102.863 17.3737 102.971 17.4011C103.078 17.4011 103.16 17.4011 103.186 17.4286C103.24 17.4011 103.321 17.4011 103.429 17.4011C103.536 17.4011 103.645 17.3737 103.698 17.3737V21.7993C103.698 22.5051 103.645 23.1301 103.51 23.645C103.402 24.1629 103.188 24.5691 102.837 24.894C102.621 25.1113 102.379 25.2748 102.11 25.4383C101.868 25.5739 101.598 25.681 101.274 25.7633C100.926 25.845 100.548 25.872 100.116 25.872C98.8515 25.872 97.8821 25.547 97.2109 24.894C96.6973 24.3243 96.4546 23.5363 96.4546 22.5604ZM90.3436 25.7085L90.3416 18.243C89.5344 18.243 88.7816 18.2963 88.0817 18.4324C88.0817 18.3517 88.0817 18.2704 88.1089 18.1602V17.6733C88.0817 17.5631 88.0817 17.4565 88.0817 17.3737H94.2733C94.2733 17.5631 94.2476 17.754 94.2204 17.9434C94.2476 18.1343 94.2733 18.2963 94.2733 18.4324C93.2778 18.2963 92.5778 18.243 92.1191 18.243L92.1206 25.7085C92.0114 25.7085 91.8507 25.681 91.6629 25.6826C91.4479 25.6826 91.2858 25.6826 91.178 25.6557C91.0964 25.6826 90.963 25.6826 90.7737 25.6826C90.5858 25.6826 90.4237 25.7085 90.3436 25.7085ZM84.1229 17.3737C84.3122 17.4011 84.6078 17.4011 85.0121 17.4565C85.3893 17.4011 85.7105 17.4011 85.8999 17.3737V25.7364C85.5771 25.6826 85.2543 25.6557 84.9572 25.6557C84.6879 25.6557 84.42 25.6826 84.1229 25.7364V17.3737ZM77.957 25.7085V18.243C77.1493 18.243 76.395 18.2978 75.6946 18.4324C75.6946 18.3517 75.6946 18.2704 75.7223 18.1602V17.6733C75.6946 17.5646 75.6946 17.4565 75.6946 17.3737H81.9154C81.8882 17.5646 81.8625 17.754 81.8333 17.9449C81.8625 18.1343 81.8882 18.2978 81.9154 18.4324C80.9183 18.2978 80.1927 18.243 79.7335 18.243V25.7085C79.6263 25.7085 79.4641 25.6826 79.2763 25.6826C79.0608 25.6826 78.8991 25.6826 78.7914 25.6557C78.7113 25.6826 78.5764 25.6826 78.3885 25.6826C78.1992 25.6826 78.0658 25.7085 77.957 25.7085ZM69.4487 23.8085H69.6909C69.7709 24.1888 69.9588 24.5152 70.2302 24.76C70.4986 25.0042 70.8757 25.1113 71.3601 25.1388C71.7378 25.1388 72.0857 25.0306 72.3299 24.7864C72.5978 24.5691 72.7333 24.2436 72.7333 23.8907C72.7333 23.5383 72.6255 23.2403 72.3828 22.994C72.1406 22.7498 71.7378 22.5051 71.1708 22.2624C70.7136 22.0714 70.3364 21.8541 70.068 21.6373C69.7709 21.419 69.5559 21.1473 69.3958 20.8508C69.2332 20.5238 69.1516 20.1709 69.1516 19.7353C69.1516 19.2742 69.2593 18.8406 69.4759 18.4598C69.6637 18.0536 69.986 17.754 70.3908 17.5098C70.8213 17.293 71.3601 17.1569 71.98 17.1569C72.3284 17.1569 72.6799 17.2117 73.0299 17.3204C73.3783 17.4286 73.6497 17.5646 73.8375 17.7281C73.7832 17.9175 73.7298 18.1343 73.6497 18.3242C73.5948 18.541 73.5148 18.732 73.4599 18.9488H73.2721C73.1905 18.6512 73.0299 18.4065 72.7872 18.1876C72.5455 17.9983 72.2756 17.8901 71.8979 17.8901C71.0107 17.8901 70.5786 18.2978 70.5786 19.1123C70.5786 19.5738 70.9286 19.98 71.6285 20.3329L72.5178 20.7685C73.1905 21.0935 73.6497 21.4738 73.8904 21.8805C74.1326 22.3157 74.2404 22.7772 74.2404 23.2657C74.2404 23.6998 74.1326 24.0527 73.9448 24.3797C73.7832 24.7046 73.542 24.9773 73.2177 25.2215C72.9226 25.4383 72.5726 25.6003 72.195 25.7085C71.7906 25.8186 71.4135 25.872 71.0107 25.872C70.2559 25.845 69.6103 25.6826 69.0982 25.3576C69.2609 24.8133 69.3681 24.2974 69.4487 23.8085ZM59.405 25.7085V17.3737H60.6166C60.966 17.754 61.3704 18.2156 61.8276 18.7061C62.2858 19.193 62.7435 19.7084 63.2284 20.2258C63.6861 20.7132 64.1434 21.2022 64.5744 21.6911C65.0049 22.1522 65.4098 22.6132 65.8141 23.0748V17.3737C65.867 17.3737 65.947 17.4011 66.0563 17.4011C66.1364 17.4011 66.2169 17.4011 66.2718 17.4286C66.3242 17.4011 66.4048 17.4011 66.514 17.4011C66.6213 17.4011 66.7019 17.3737 66.7834 17.3737V25.7364L65.7592 25.7085C64.4133 24.2162 63.3901 23.0748 62.7163 22.3157C62.0159 21.5545 61.2359 20.7132 60.3739 19.818L60.3734 25.7085C60.2933 25.7085 60.2122 25.6826 60.1045 25.6826C59.9695 25.6826 59.8895 25.6826 59.8356 25.6557C59.7817 25.6826 59.7273 25.6826 59.6201 25.6826C59.539 25.6826 59.4584 25.7085 59.405 25.7085ZM118.157 17.1569V17.8627C117.297 17.9175 116.65 18.2963 116.22 19.0021C115.789 19.7632 115.573 20.7132 115.573 21.9079C115.573 22.5863 115.708 23.1575 115.923 23.646C116.138 24.1334 116.462 24.5152 116.837 24.76C117.215 25.0042 117.619 25.1388 118.051 25.1388H118.157V25.872H118.024C117.432 25.872 116.785 25.7633 116.085 25.5191C115.412 25.2748 114.82 24.8671 114.308 24.2436C113.796 23.6206 113.553 22.7772 113.528 21.7185C113.553 21.6632 113.553 21.6099 113.553 21.5545C113.581 21.0128 113.661 20.4964 113.85 20.0074C114.011 19.491 114.308 19.03 114.658 18.5959C115.035 18.1623 115.52 17.8073 116.112 17.5646C116.677 17.293 117.377 17.1569 118.157 17.1569ZM54.6657 17.3737C54.8535 17.4011 55.1511 17.4011 55.5545 17.4565C55.9578 17.4011 56.2544 17.4011 56.4422 17.3737L56.4427 25.7364C56.1194 25.6826 55.8234 25.6557 55.5006 25.6557C55.2307 25.6557 54.9618 25.6826 54.6657 25.7364V17.3737ZM159.92 21.8257C159.947 20.6045 160.217 19.653 160.756 18.9472C161.294 18.2689 161.886 17.7799 162.614 17.5357C163.313 17.291 163.986 17.1569 164.633 17.1569C165.225 17.1569 165.764 17.2376 166.221 17.3737C166.68 17.4819 167.002 17.6179 167.217 17.754C167.11 18.0795 167.028 18.5136 166.921 19.0021H166.76C166.491 18.6492 166.194 18.3775 165.845 18.1876C165.493 17.9967 165.145 17.8886 164.768 17.8886C164.229 17.8886 163.744 18.0521 163.313 18.3496C162.882 18.6492 162.533 19.0569 162.291 19.6266C162.048 20.1968 161.939 20.8478 161.939 21.6358C161.939 22.3141 162.048 22.9113 162.263 23.4281C162.478 23.9714 162.803 24.3782 163.233 24.6777C163.69 24.9758 164.203 25.1388 164.82 25.1388C165.171 25.1388 165.548 25.058 165.951 24.894C166.357 24.731 166.706 24.5137 166.976 24.2421L167.137 24.2974L166.868 25.3561C166.248 25.7085 165.468 25.872 164.471 25.872C163.771 25.872 163.151 25.7633 162.586 25.547C162.021 25.3282 161.536 25.0306 161.133 24.6777C160.756 24.2974 160.432 23.8633 160.244 23.3743C160.029 22.8585 159.92 22.3695 159.92 21.8257ZM155.908 17.3737C156.098 17.3996 156.393 17.3996 156.797 17.4545C157.202 17.3996 157.497 17.3996 157.687 17.3737V25.7364C157.362 25.681 157.04 25.6557 156.743 25.6557C156.473 25.6557 156.205 25.681 155.908 25.7364V17.3737ZM149.474 21.8541L147.023 17.3737C147.454 17.4011 147.803 17.427 148.073 17.4565C148.477 17.427 148.827 17.4011 149.151 17.3737L150.658 20.3329L152.462 17.3737C152.544 17.3737 152.651 17.3996 152.759 17.3996C152.893 17.3996 153.001 17.3996 153.054 17.427C153.136 17.3996 153.243 17.3996 153.378 17.3996C153.513 17.3996 153.621 17.3737 153.674 17.3737L151.116 21.0371C152.327 23.2657 153.163 24.8392 153.621 25.7364C153.431 25.7085 153.081 25.7085 152.596 25.6557C152.086 25.7085 151.736 25.7085 151.521 25.7364L149.957 22.6132C149.367 23.5363 148.962 24.1629 148.719 24.5416C148.504 24.894 148.289 25.3023 148.073 25.7085C148.02 25.7085 147.912 25.681 147.777 25.681C147.669 25.681 147.562 25.681 147.508 25.6557C147.454 25.681 147.345 25.681 147.185 25.681C147.05 25.7085 146.942 25.7085 146.862 25.7085C147.13 25.3576 147.535 24.76 148.1 23.9166C148.665 23.1022 149.124 22.4243 149.474 21.8541ZM140.669 25.6557V17.3737H145.273C145.245 17.5098 145.218 17.6733 145.192 17.9175C145.218 18.0521 145.218 18.2156 145.273 18.4324C144.438 18.3242 143.63 18.2704 142.876 18.2704H142.499V20.8493H144.061C144.518 20.8493 144.923 20.8219 145.218 20.7406C145.192 20.8767 145.192 20.9848 145.165 21.092C145.165 21.1742 145.138 21.257 145.138 21.3382C145.165 21.4738 145.192 21.6632 145.218 21.8267C144.842 21.7439 144.356 21.6911 143.765 21.6911H142.499V24.7864C143.441 24.7864 144.356 24.7326 145.273 24.6239C145.245 24.8392 145.218 25.0306 145.192 25.1936C145.218 25.3302 145.245 25.4916 145.273 25.6557H140.669ZM128.578 25.7364C128.794 24.5152 129.009 23.1575 129.225 21.6911C129.44 20.1968 129.656 18.7853 129.817 17.3737C129.898 17.3737 130.005 17.4011 130.086 17.4011C130.194 17.4286 130.274 17.4286 130.329 17.4565C130.571 17.4011 130.732 17.3737 130.814 17.3737C131.433 18.7304 132.349 20.6325 133.588 23.1022C133.856 22.6132 134.098 22.0973 134.341 21.6099C134.61 21.1214 134.825 20.6853 135.015 20.305C135.203 19.9247 135.418 19.4651 135.688 18.9213C135.955 18.3517 136.198 17.8353 136.415 17.3737C136.495 17.3737 136.683 17.4011 136.952 17.4565C137.06 17.4286 137.22 17.4011 137.437 17.3737C137.545 18.2704 137.625 19.03 137.681 19.5997C137.76 20.1694 137.814 20.7939 137.895 21.4738C137.975 22.1248 138.084 22.8046 138.164 23.483C138.272 24.1888 138.352 24.922 138.487 25.7364C138.164 25.681 137.842 25.6557 137.492 25.6557C137.169 25.6557 136.845 25.681 136.495 25.7364C136.495 25.2748 136.468 24.8133 136.415 24.3523C136.387 23.8907 136.36 23.483 136.305 23.1575C136.28 22.8046 136.225 22.3157 136.172 21.6911C136.09 21.0661 136.037 20.5223 135.983 20.0607C135.015 22.0166 134.126 23.8907 133.318 25.6557H132.861C132.726 25.3302 132.483 24.8392 132.161 24.1888C131.836 23.5363 131.594 23.0214 131.433 22.6944C131.271 22.3431 131.056 21.9079 130.814 21.3916C130.544 20.8767 130.356 20.4705 130.222 20.1694C130.141 20.7132 130.059 21.3657 129.979 22.0973C129.897 22.832 129.844 23.5363 129.79 24.1629C129.737 24.7864 129.709 25.3023 129.709 25.7364C129.602 25.7085 129.494 25.7085 129.44 25.7085C129.36 25.681 129.279 25.681 129.144 25.6567C128.875 25.7085 128.687 25.7364 128.578 25.7364ZM118.157 25.872V25.1388C118.804 25.1113 119.315 24.894 119.719 24.4883C120.124 24.0527 120.393 23.5383 120.554 22.9392C120.689 22.3431 120.771 21.7993 120.771 21.2844C120.771 20.6045 120.663 20.0348 120.474 19.519C120.259 19.0021 119.963 18.5959 119.584 18.2963C119.209 18.0262 118.777 17.8627 118.267 17.8627H118.157V17.1569H118.212C118.966 17.1569 119.639 17.293 120.231 17.5098C120.823 17.7281 121.308 18.0536 121.684 18.4598C122.063 18.8406 122.333 19.3017 122.52 19.8455C122.708 20.3603 122.79 20.9026 122.79 21.5017C122.79 22.1801 122.681 22.7772 122.438 23.3195C122.196 23.8633 121.873 24.2974 121.416 24.6777C120.984 25.058 120.499 25.3302 119.907 25.5191C119.369 25.7085 118.804 25.8171 118.157 25.872ZM172.092 17.3189V19.6804L170.987 22.4243H172.092V23.1834L170.665 23.1849C170.611 23.3195 170.529 23.5911 170.369 24.0263C170.207 24.433 170.099 24.76 170.017 25.0027C169.938 25.2474 169.856 25.4642 169.802 25.7085C169.75 25.7085 169.64 25.681 169.507 25.681C169.372 25.681 169.29 25.681 169.21 25.6536C169.157 25.681 169.077 25.681 168.942 25.681C168.834 25.7085 168.752 25.7085 168.672 25.7085L172.092 17.3189ZM178.418 25.7085V17.3737H179.63C179.982 17.7525 180.385 18.2156 180.842 18.7025C181.299 19.1915 181.731 19.7084 182.216 20.2242C182.674 20.7132 183.13 21.2022 183.561 21.6911C183.993 22.1522 184.398 22.6132 184.8 23.0748V17.3737C184.854 17.3737 184.936 17.3996 185.016 17.3996C185.124 17.3996 185.205 17.3996 185.258 17.427C185.313 17.3996 185.393 17.3996 185.501 17.3996C185.609 17.3996 185.689 17.3737 185.743 17.3737V25.7364L184.746 25.7085C183.401 24.2147 182.377 23.0748 181.731 22.3141C181.031 21.5545 180.251 20.7132 179.387 19.8165V25.7085C179.307 25.7085 179.227 25.681 179.119 25.681C178.985 25.681 178.902 25.681 178.85 25.6536C178.797 25.681 178.742 25.681 178.635 25.681C178.555 25.681 178.473 25.7085 178.418 25.7085ZM172.092 23.1834V22.4243H173.196L172.119 19.5997L172.092 19.6804V17.3189L172.119 17.2656C172.199 17.2656 172.254 17.291 172.334 17.291H172.576C172.846 17.291 173.006 17.2656 173.034 17.2656L176.4 25.7085C176.265 25.7085 176.076 25.681 175.835 25.681C175.618 25.681 175.431 25.681 175.296 25.6536C175.188 25.681 175.026 25.681 174.811 25.681C174.596 25.7085 174.434 25.7085 174.326 25.7085C174.084 24.8671 173.788 24.0253 173.491 23.1834H172.092ZM192.609 17.1569V17.8612C191.72 17.916 191.074 18.2963 190.67 19.0021C190.212 19.7632 189.997 20.7132 189.997 21.9079C190.024 22.5863 190.132 23.156 190.374 23.645C190.589 24.1334 190.887 24.5137 191.262 24.7585C191.64 25.0027 192.044 25.1388 192.502 25.1388H192.609V25.872H192.474C191.855 25.872 191.21 25.7633 190.537 25.5175C189.864 25.2748 189.244 24.8671 188.759 24.2421C188.247 23.6175 187.978 22.7757 187.978 21.717C188.005 21.6632 188.005 21.6084 188.005 21.5545C188.005 21.0113 188.112 20.4964 188.302 20.0074C188.463 19.491 188.732 19.03 189.11 18.5944C189.487 18.1602 189.97 17.8073 190.537 17.5631C191.129 17.291 191.801 17.1569 192.609 17.1569ZM192.609 25.872V25.1388C193.254 25.1113 193.767 24.894 194.144 24.4868C194.547 24.0527 194.818 23.5363 194.979 22.9392C195.141 22.3416 195.221 21.7993 195.221 21.2829C195.221 20.6045 195.113 20.0348 194.898 19.519C194.709 19.0021 194.414 18.5944 194.036 18.2963C193.659 18.0247 193.229 17.8612 192.718 17.8612H192.609V17.1569H192.637C193.416 17.1569 194.089 17.291 194.683 17.5083C195.248 17.7251 195.733 18.0521 196.11 18.4583C196.486 18.8391 196.783 19.3001 196.973 19.8439C197.133 20.3603 197.242 20.9026 197.242 21.5002C197.242 22.1781 197.106 22.7757 196.89 23.3195C196.648 23.8633 196.298 24.2974 195.866 24.6762C195.436 25.058 194.926 25.3282 194.359 25.5175C193.821 25.7085 193.229 25.8171 192.609 25.872ZM207.42 17.3737V18.1602C207.203 18.1328 206.933 18.1054 206.665 18.1054H205.426V24.9494H206.557C206.881 24.9494 207.15 24.9204 207.42 24.8392V25.6262C207.258 25.6557 207.069 25.6557 206.881 25.6557H203.649V17.3737H207.42ZM255.724 22.5584V17.3722C256.047 17.427 256.345 17.4529 256.613 17.4529C256.881 17.4529 257.206 17.427 257.53 17.3722V22.042C257.53 22.4761 257.556 22.8843 257.636 23.2647C257.691 23.6175 257.798 23.9166 257.906 24.106C258.337 24.731 258.901 25.0286 259.655 25.0286C260.087 25.0286 260.437 24.9737 260.707 24.8392C260.975 24.731 261.217 24.5137 261.46 24.2147C261.675 23.8892 261.837 23.481 261.892 23.0199C261.972 22.5584 261.999 22.042 261.999 21.4723V17.3722C262.052 17.3722 262.134 17.3722 262.242 17.3996C262.347 17.3996 262.429 17.3996 262.455 17.4255C262.509 17.3996 262.59 17.3996 262.699 17.3996C262.807 17.3996 262.887 17.3722 262.968 17.3722V21.7978C262.968 22.5035 262.914 23.1286 262.779 23.645C262.672 24.1593 262.455 24.5675 262.107 24.893C261.864 25.1113 261.622 25.2733 261.378 25.4368C261.137 25.5709 260.842 25.681 260.517 25.7633C260.195 25.843 259.818 25.8704 259.385 25.8704C258.122 25.8704 257.153 25.5455 256.479 24.894C255.968 24.3243 255.724 23.5363 255.724 22.5584ZM244.954 21.7439C244.954 21.2022 245.061 20.6584 245.223 20.1435C245.385 19.5997 245.654 19.1107 246.03 18.6751C246.408 18.2415 246.92 17.8627 247.567 17.5905C248.213 17.3189 248.993 17.1828 249.909 17.1554C251.012 17.1554 252.01 17.3996 252.842 17.8886C252.762 18.078 252.682 18.2948 252.629 18.539C252.547 18.8127 252.52 19.0021 252.495 19.1366H252.332C252.037 18.6751 251.685 18.3775 251.255 18.1876C250.824 17.9967 250.393 17.8886 249.962 17.8886C249.505 17.8886 249.128 17.9693 248.75 18.1602C248.401 18.3242 248.078 18.5944 247.808 18.9213C247.539 19.2463 247.351 19.653 247.19 20.1435C247.054 20.6304 246.975 21.1742 246.946 21.7719C246.946 22.4502 247.054 23.0473 247.296 23.5637C247.539 24.0801 247.888 24.4589 248.293 24.7585C248.723 25.0306 249.181 25.1652 249.693 25.1921C250.205 25.1652 250.69 25.0306 251.173 24.8118V21.9613C251.497 22.0166 251.82 22.0166 252.09 22.0166C252.358 22.0166 252.655 22.0166 253.005 21.9613V25.3282C251.847 25.7085 250.77 25.872 249.774 25.872C249.208 25.872 248.643 25.8171 248.078 25.6536C247.512 25.5191 247.001 25.3007 246.543 24.9758C246.058 24.6498 245.681 24.2147 245.386 23.6724C245.114 23.1301 244.954 22.5051 244.954 21.7439ZM238.518 25.6536V17.3737H243.149C243.124 17.5083 243.069 17.6718 243.042 17.916C243.069 18.0521 243.097 18.2156 243.124 18.4324C242.289 18.3242 241.509 18.2689 240.752 18.2689H240.35V20.8478H241.912C242.396 20.8478 242.772 20.8198 243.069 20.7391C243.069 20.8747 243.042 20.9833 243.015 21.092C243.015 21.1742 243.015 21.2555 242.989 21.3367C243.015 21.4723 243.042 21.6632 243.069 21.8257C242.692 21.7439 242.209 21.6911 241.615 21.6911H240.35V24.7844C241.292 24.7844 242.234 24.731 243.149 24.6224C243.097 24.8392 243.069 25.0306 243.042 25.1921C243.069 25.3282 243.097 25.4916 243.124 25.6536H238.518ZM231.572 23.8085H231.814C231.896 24.1888 232.084 24.5137 232.352 24.7585C232.622 25.0027 232.999 25.1113 233.484 25.1388C233.887 25.1388 234.211 25.0306 234.48 24.7844C234.749 24.5691 234.884 24.2421 234.884 23.8892C234.884 23.5363 234.749 23.2367 234.507 22.994C234.291 22.7498 233.861 22.5051 233.296 22.2608C232.837 22.0699 232.487 21.8526 232.19 21.6358C231.896 21.419 231.68 21.1473 231.518 20.8478C231.357 20.5223 231.302 20.1694 231.302 19.7353C231.302 19.2742 231.384 18.8391 231.6 18.4598C231.787 18.0521 232.111 17.7525 232.542 17.5083C232.944 17.291 233.484 17.1554 234.103 17.1554C234.452 17.1554 234.804 17.2102 235.153 17.3189C235.504 17.427 235.773 17.5631 235.988 17.7266C235.908 17.916 235.854 18.1328 235.8 18.3222C235.719 18.541 235.666 18.7304 235.584 18.9472H235.423C235.315 18.6492 235.153 18.405 234.911 18.1876C234.694 17.9967 234.399 17.8886 234.049 17.8886C233.161 17.8886 232.702 18.2963 232.702 19.1107C232.702 19.5718 233.053 19.98 233.754 20.3329L234.641 20.7685C235.315 21.092 235.773 21.4723 236.015 21.8805C236.256 22.3141 236.365 22.7772 236.365 23.2647C236.365 23.6998 236.256 24.0527 236.096 24.3797C235.908 24.7036 235.664 24.9758 235.341 25.22C235.044 25.4368 234.694 25.5983 234.319 25.7085C233.942 25.8171 233.537 25.872 233.161 25.872C232.379 25.845 231.76 25.681 231.222 25.3561C231.384 24.8118 231.492 24.2974 231.572 23.8085ZM220.639 17.3737C220.963 17.3996 221.259 17.427 221.554 17.4545C221.554 17.4545 221.689 17.427 221.906 17.427C222.121 17.4011 222.309 17.3737 222.471 17.3737V24.7864C223.251 24.7864 224.167 24.731 225.244 24.6224C225.218 24.7585 225.163 24.9478 225.136 25.1652C225.163 25.3023 225.191 25.4642 225.218 25.6536H220.639V17.3737ZM213.772 25.6557V17.3737H218.378C218.35 17.5083 218.323 17.6718 218.27 17.916C218.298 18.0521 218.323 18.2156 218.35 18.4324C217.543 18.3222 216.736 18.2689 215.981 18.2689H215.578V20.8478H217.14C217.625 20.8478 218 20.8219 218.298 20.7391C218.298 20.8747 218.27 20.9833 218.27 21.092C218.243 21.1727 218.243 21.2555 218.243 21.3367C218.27 21.4723 218.298 21.6632 218.298 21.8257C217.92 21.7439 217.435 21.6891 216.843 21.6891H215.578V24.7864C216.546 24.7864 217.463 24.731 218.378 24.6224C218.323 24.8392 218.298 25.0286 218.27 25.1921C218.323 25.3282 218.323 25.4916 218.35 25.6536L213.772 25.6557ZM207.42 25.6262V24.8392C208.738 24.4868 209.412 23.3195 209.412 21.3108C209.412 20.1415 209.17 19.3001 208.657 18.8127C208.308 18.4857 207.903 18.2689 207.42 18.1602V17.3737H207.769C208.388 17.3737 209.007 17.5083 209.547 17.8073C210.112 18.078 210.569 18.5136 210.919 19.1107C211.242 19.6804 211.432 20.3877 211.432 21.2281C211.404 22.0699 211.242 22.8305 210.892 23.5089C210.569 24.1888 210.057 24.7046 209.358 25.0839C208.818 25.4109 208.172 25.5724 207.42 25.6262ZM268.514 17.3722V18.078C268.353 18.05 268.191 18.05 267.976 18.05H267.573V21.3088H267.841C268.11 21.3088 268.326 21.2814 268.514 21.2006V23.3195C268.433 23.1545 268.326 22.992 268.273 22.8843C268.084 22.531 267.87 22.1781 267.653 21.8257H267.573V25.7349C267.222 25.681 266.898 25.6536 266.658 25.6536C266.414 25.6536 266.118 25.681 265.741 25.7349V17.3722H268.514ZM268.514 23.3195V21.2006C269.134 21.0113 269.457 20.4675 269.485 19.5718C269.485 19.1366 269.403 18.8112 269.27 18.5923C269.134 18.3496 268.971 18.2141 268.758 18.1328C268.676 18.1328 268.595 18.1054 268.514 18.078V17.3722H268.783C269.348 17.3722 269.78 17.4255 270.05 17.5083C270.318 17.6164 270.588 17.7799 270.83 18.05C271.153 18.3496 271.342 18.7853 271.342 19.355C271.342 20.0059 271.128 20.5223 270.75 20.8747C270.373 21.2006 269.941 21.4464 269.457 21.5545C269.727 22.042 269.996 22.4761 270.238 22.829C270.453 23.2093 270.775 23.6983 271.208 24.3507C271.612 25.0286 271.907 25.4916 272.07 25.7349C271.665 25.681 271.315 25.6536 270.992 25.6536C270.643 25.6536 270.292 25.681 269.861 25.7349C269.645 25.3266 269.35 24.8118 269.026 24.2421C268.838 23.8892 268.676 23.5896 268.514 23.3195ZM278.073 17.1554V17.8612C277.211 17.9145 276.566 18.2948 276.134 19.0006C275.704 19.7612 275.489 20.7117 275.489 21.9064C275.489 22.5848 275.624 23.1545 275.839 23.6434C276.081 24.1334 276.378 24.5137 276.754 24.7585C277.131 25.0012 277.534 25.1372 277.966 25.1372H278.073V25.8704H277.938C277.346 25.8704 276.701 25.7618 276.001 25.516C275.327 25.2733 274.734 24.8651 274.224 24.2421C273.711 23.6175 273.47 22.7757 273.442 21.717C273.47 21.6617 273.47 21.6068 273.47 21.5545C273.495 21.0113 273.577 20.4944 273.766 20.0059C273.954 19.4895 274.224 19.0285 274.573 18.5923C274.951 18.1602 275.434 17.8063 276.027 17.5616C276.593 17.291 277.293 17.1554 278.073 17.1554ZM288.951 23.8069H289.194C289.274 24.1872 289.464 24.5137 289.733 24.7585C290.002 25.0027 290.378 25.1098 290.863 25.1372C291.24 25.1372 291.59 25.0286 291.86 24.7864C292.103 24.5675 292.237 24.2421 292.237 23.8892C292.237 23.5363 292.13 23.2367 291.887 22.992C291.643 22.7483 291.24 22.5035 290.675 22.2593C290.218 22.0699 289.841 21.8511 289.571 21.6358C289.274 21.4175 289.06 21.1473 288.898 20.8478C288.736 20.5223 288.655 20.1694 288.655 19.7353C288.655 19.2722 288.763 18.8391 288.979 18.4583C289.168 18.05 289.49 17.7525 289.895 17.5083C290.326 17.291 290.863 17.1554 291.482 17.1554C291.833 17.1554 292.184 17.2102 292.532 17.3174C292.883 17.4255 293.152 17.5631 293.34 17.7251C293.287 17.916 293.233 18.1328 293.152 18.3222C293.099 18.539 293.017 18.7304 292.963 18.9472H292.775C292.695 18.6477 292.532 18.405 292.29 18.1866C292.048 17.9967 291.779 17.8871 291.402 17.8871C290.513 17.8871 290.083 18.2948 290.083 19.1107C290.083 19.5718 290.432 19.9785 291.133 20.3329L292.021 20.767C292.695 21.092 293.152 21.4723 293.395 21.8785C293.637 22.3141 293.745 22.7757 293.745 23.2647C293.745 23.6983 293.637 24.0507 293.448 24.3782C293.287 24.7036 293.045 24.9758 292.722 25.22C292.425 25.4368 292.075 25.5983 291.698 25.7085C291.293 25.8171 290.917 25.8704 290.513 25.8704C289.761 25.843 289.113 25.681 288.601 25.354C288.763 24.8118 288.871 24.2954 288.951 23.8069ZM278.073 25.8704V25.1372C278.72 25.1098 279.231 24.893 279.635 24.4848C280.04 24.0507 280.308 23.5363 280.47 22.9392C280.605 22.3416 280.685 21.7978 280.685 21.2814C280.685 20.603 280.578 20.0333 280.39 19.5169C280.173 19.0006 279.878 18.5923 279.501 18.2948C279.123 18.0247 278.693 17.8612 278.181 17.8612H278.073V17.1554H278.128C278.881 17.1554 279.581 17.291 280.148 17.5083C280.738 17.7251 281.225 18.05 281.602 18.4583C281.977 18.8391 282.247 19.3001 282.437 19.8424C282.624 20.3588 282.705 20.9026 282.705 21.4982C282.705 22.1781 282.597 22.7757 282.355 23.3195C282.112 23.8618 281.79 24.2974 281.358 24.6762C280.927 25.0565 280.417 25.3266 279.85 25.516C279.313 25.7085 278.72 25.8156 278.073 25.8704ZM299.993 17.1554V17.8612C299.103 17.916 298.458 18.2948 298.053 19.0021C297.596 19.7632 297.381 20.7117 297.381 21.9079C297.406 22.5848 297.516 23.156 297.756 23.645C297.973 24.1334 298.268 24.5137 298.646 24.7569C299.023 25.0027 299.428 25.1372 299.883 25.1372H299.993V25.8704H299.856C299.236 25.8704 298.591 25.7618 297.918 25.5175C297.219 25.2733 296.626 24.8671 296.141 24.2421C295.629 23.6175 295.362 22.7757 295.362 21.717C295.388 21.6617 295.388 21.6068 295.388 21.5545C295.388 21.0113 295.496 20.4944 295.656 20.0059C295.846 19.4895 296.114 19.0285 296.491 18.5923C296.869 18.1602 297.326 17.8073 297.918 17.5631C298.511 17.291 299.183 17.1554 299.993 17.1554ZM299.993 25.8704V25.1372C300.638 25.1098 301.15 24.894 301.527 24.4868C301.93 24.0507 302.2 23.5363 302.362 22.9372C302.524 22.3416 302.602 21.7978 302.602 21.2814C302.602 20.603 302.495 20.0333 302.28 19.5169C302.092 19.0021 301.795 18.5944 301.42 18.2948C301.042 18.0226 300.583 17.8612 300.1 17.8612H299.993V17.1554H300.018C300.798 17.1554 301.472 17.291 302.063 17.5083C302.63 17.7251 303.115 18.05 303.492 18.4583C303.869 18.8391 304.165 19.3001 304.327 19.8424C304.514 20.3588 304.622 20.9011 304.622 21.4982C304.622 22.1781 304.489 22.7757 304.246 23.3195C304.029 23.8618 303.68 24.2954 303.25 24.6762C302.819 25.0565 302.307 25.3282 301.742 25.5175C301.203 25.7085 300.612 25.8156 299.993 25.8704Z" fill="white"/>
<path fill-rule="evenodd" clip-rule="evenodd" d="M315.824 17.3722C316.014 17.3997 316.309 17.3997 316.712 17.453C317.116 17.3997 317.413 17.3997 317.601 17.3722V25.7349C317.279 25.6811 316.982 25.6537 316.659 25.6537C316.389 25.6537 316.121 25.6811 315.824 25.7349V17.3722ZM323.122 17.3174V19.6789L322.018 22.4223H323.122V23.1814H321.695C321.641 23.318 321.561 23.5896 321.398 24.0238C321.236 24.4315 321.128 24.757 321.048 25.0027C320.968 25.2459 320.886 25.4627 320.833 25.7085C320.779 25.7085 320.671 25.6811 320.536 25.6811C320.403 25.6811 320.321 25.6811 320.241 25.6537C320.186 25.6811 320.106 25.6811 319.969 25.6811C319.863 25.7085 319.782 25.7085 319.729 25.7085L323.122 17.3174ZM306.132 21.8257C306.132 20.6031 306.399 19.6531 306.939 18.9473C307.478 18.2689 308.096 17.78 308.796 17.5357C309.496 17.291 310.196 17.1554 310.843 17.1554C311.435 17.1554 311.947 17.2362 312.405 17.3722C312.862 17.4804 313.212 17.6165 313.402 17.7525C313.32 18.078 313.212 18.5116 313.105 19.0006H312.97C312.702 18.6477 312.377 18.3771 312.028 18.1867C311.678 17.9952 311.328 17.8871 310.95 17.8871C310.413 17.8871 309.928 18.0501 309.496 18.3497C309.066 18.6477 308.742 19.0554 308.501 19.6251C308.258 20.1953 308.124 20.8478 308.124 21.6343C308.124 22.3142 308.231 22.9113 308.446 23.4262C308.663 23.97 308.984 24.3767 309.443 24.6762C309.873 24.9758 310.413 25.1373 311.03 25.1373C311.381 25.1373 311.758 25.0565 312.163 24.893C312.565 24.7311 312.89 24.5138 313.158 24.2421L313.347 24.2954L313.05 25.3541C312.457 25.7085 311.65 25.8705 310.681 25.8705C309.982 25.8705 309.336 25.7618 308.771 25.5455C308.204 25.3267 307.719 25.0286 307.344 24.6762C306.939 24.2954 306.642 23.8618 306.427 23.3728C306.239 22.8565 306.132 22.3675 306.132 21.8257ZM329.396 17.3722C329.718 17.3997 330.016 17.4255 330.283 17.453C330.311 17.453 330.446 17.4255 330.661 17.4255C330.876 17.3997 331.064 17.3722 331.198 17.3722V24.7844C332.008 24.7844 332.922 24.7311 334 24.6224C333.945 24.757 333.92 24.9464 333.892 25.1652C333.92 25.3008 333.945 25.4643 333.972 25.6537H329.396V17.3722ZM323.122 23.1814V22.4223H324.225L323.148 19.5982L323.122 19.6789V17.3174L323.148 17.2636C323.23 17.2636 323.283 17.2895 323.365 17.2895H323.605C323.875 17.2895 324.037 17.2636 324.064 17.2636L327.429 25.7085C327.294 25.7085 327.107 25.6811 326.864 25.6811C326.649 25.6811 326.461 25.6811 326.325 25.6537C326.219 25.6811 326.057 25.6811 325.842 25.6811C325.625 25.7085 325.463 25.7085 325.355 25.7085C325.114 24.8671 324.817 24.0238 324.522 23.1814H323.122Z" fill="white"/>
<path fill-rule="evenodd" clip-rule="evenodd" d="M70.6537 34.2334V30.4065C70.9009 30.4324 71.1189 30.4613 71.3103 30.4613C71.5283 30.4613 71.7469 30.4324 71.9926 30.4065V33.8755C71.9926 34.2055 72.0198 34.4807 72.0742 34.7574C72.129 35.0605 72.1834 35.253 72.2927 35.418C72.5928 35.8582 73.0294 36.106 73.5767 36.106C73.9045 36.106 74.1498 36.0512 74.3683 35.941C74.5591 35.8582 74.7505 35.6932 74.9141 35.4728C75.0778 35.2256 75.187 34.9504 75.2434 34.5909C75.2963 34.2334 75.325 33.8755 75.325 33.4627V30.4065C75.3507 30.4065 75.4056 30.4065 75.4892 30.4324H75.8437C75.9252 30.4065 75.9801 30.4065 76.0345 30.4065V33.683C76.0345 34.2334 75.9801 34.6736 75.8981 35.0605C75.8165 35.4459 75.6528 35.748 75.4056 35.9684C75.2163 36.1355 75.0506 36.2715 74.8598 36.3827C74.6684 36.4914 74.4776 36.5736 74.2318 36.629C73.9861 36.6838 73.7132 36.7118 73.3859 36.7118C72.4292 36.7118 71.7197 36.464 71.2282 35.9684C70.846 35.5556 70.6537 34.9778 70.6537 34.2334ZM63.3075 33.6551C63.3075 33.2428 63.3624 32.8574 63.4994 32.4431C63.6081 32.0577 63.799 31.7002 64.0996 31.3697C64.373 31.0397 64.7557 30.7645 65.2466 30.5715C65.7109 30.3791 66.2854 30.2669 66.9678 30.24C67.7865 30.24 68.5247 30.4324 69.1526 30.7919C69.0982 30.9274 69.0434 31.0945 68.989 31.2869C68.9341 31.4799 68.9069 31.6175 68.8797 31.7002H68.7704C68.5524 31.3697 68.2775 31.1498 67.9502 31.0117C67.65 30.8746 67.3227 30.7919 66.9949 30.7919C66.6676 30.7919 66.3947 30.8467 66.1203 30.9848C65.8474 31.1219 65.6016 31.3149 65.4108 31.5621C65.2195 31.8104 65.0558 32.1125 64.947 32.4705C64.8378 32.8295 64.7819 33.2149 64.7557 33.683C64.7557 34.1786 64.865 34.6188 65.0286 35.0057C65.2195 35.3632 65.4652 35.6658 65.7653 35.8861C66.0946 36.0806 66.4219 36.1888 66.8041 36.2162C67.1863 36.1888 67.5685 36.106 67.923 35.9136V33.7932C68.1687 33.848 68.3872 33.848 68.5796 33.848C68.7976 33.848 69.0162 33.848 69.2619 33.7932V36.2984C68.4159 36.5736 67.6229 36.7118 66.8585 36.7118C66.4491 36.7118 66.0397 36.6564 65.6016 36.5467C65.1923 36.464 64.8096 36.2715 64.4546 36.0512C64.0996 35.8034 63.8267 35.4728 63.6081 35.088C63.4168 34.6736 63.3075 34.2055 63.3075 33.6551ZM59.1563 36.5467V30.4065H62.5703C62.5426 30.4893 62.5154 30.6264 62.4887 30.8173C62.5154 30.9016 62.5426 31.0397 62.5426 31.1768C61.9424 31.0945 61.3417 31.0671 60.7953 31.0671H60.4942V32.995H61.6418C61.9968 32.995 62.2969 32.9661 62.5154 32.9122C62.5154 32.995 62.4887 33.0763 62.4887 33.16C62.4887 33.2149 62.4606 33.2976 62.4606 33.3251C62.4888 33.4627 62.4888 33.5728 62.5154 33.7104C62.243 33.6551 61.8603 33.6282 61.4228 33.6282H60.4942V35.9136C61.2047 35.9136 61.887 35.8582 62.5703 35.776C62.5426 35.941 62.5154 36.0806 62.4887 36.1888C62.5154 36.2984 62.5426 36.4086 62.5426 36.5467H59.1563ZM79.5311 30.4065V30.9274C79.4218 30.9016 79.2839 30.9016 79.1474 30.9016H78.8201V33.3251H79.0381C79.2295 33.3251 79.3931 33.2976 79.5311 33.2428V34.8128C79.4752 34.7011 79.3931 34.5909 79.3388 34.4807C79.2023 34.2334 79.0653 33.9856 78.9017 33.7104H78.8201V36.6016C78.5744 36.5736 78.3287 36.5467 78.165 36.5467C77.9742 36.5467 77.7556 36.5736 77.4812 36.6016V30.4065H79.5311ZM54.5957 35.1692H54.7871C54.8415 35.4728 54.9779 35.6932 55.1965 35.8861C55.3878 36.0512 55.6612 36.1614 56.0157 36.1614C56.3158 36.1614 56.5626 36.0806 56.7534 35.9136C56.9443 35.748 57.054 35.4992 57.054 35.2256C57.054 34.9778 56.9715 34.7574 56.7806 34.5909C56.617 34.3984 56.3158 34.2334 55.8793 34.042C55.5515 33.9034 55.2785 33.7379 55.06 33.5728C54.8415 33.4078 54.6773 33.2149 54.5685 32.995C54.4588 32.7472 54.4044 32.4705 54.4044 32.1405C54.4044 31.8104 54.4588 31.5073 54.6234 31.2047C54.7594 30.9274 55.0051 30.6817 55.3057 30.5167C55.6335 30.3512 56.0157 30.24 56.4805 30.24C56.7534 30.24 56.9991 30.2948 57.2721 30.3791C57.5178 30.4613 57.7363 30.5441 57.8728 30.6817C57.8184 30.8173 57.7912 30.9569 57.7363 31.1219C57.6819 31.26 57.6266 31.425 57.5999 31.5621H57.4629C57.3813 31.3423 57.2721 31.1768 57.0807 31.0117C56.9176 30.8746 56.699 30.7919 56.4256 30.7919C55.77 30.7919 55.4427 31.0945 55.4427 31.7002C55.4427 32.0318 55.7151 32.3329 56.2343 32.6096L56.8899 32.9397C57.3813 33.16 57.7091 33.4352 57.9 33.7653C58.0913 34.0684 58.1734 34.3984 58.1734 34.7853C58.1734 35.088 58.0913 35.3632 57.9549 35.6109C57.8184 35.8582 57.6266 36.0512 57.4085 36.2162C57.19 36.3827 56.9171 36.5188 56.6441 36.6016C56.3435 36.6838 56.0701 36.7118 55.77 36.7118C55.2242 36.7118 54.7322 36.5736 54.35 36.3264C54.4588 35.941 54.5409 35.5556 54.5957 35.1692ZM83.1078 30.4065C83.2442 30.4065 83.4623 30.4324 83.7644 30.4613C84.0645 30.4324 84.281 30.4065 84.419 30.4065V36.6016C84.1994 36.5736 83.9537 36.5467 83.7352 36.5467C83.5443 36.5467 83.3263 36.5736 83.1078 36.6016V30.4065ZM79.5311 34.8128V33.2428C79.9934 33.1047 80.2406 32.6924 80.2406 32.0577C80.2406 31.7272 80.1862 31.4799 80.1041 31.3149C79.9934 31.1498 79.8584 31.0397 79.7204 30.9848C79.6676 30.9569 79.5855 30.9569 79.5311 30.9274V30.4065H79.7204C80.1585 30.4065 80.4591 30.4324 80.6772 30.5167C80.8685 30.5994 81.0593 30.7096 81.2502 30.9016C81.4959 31.1219 81.6324 31.452 81.6324 31.8653C81.6324 32.3608 81.4687 32.7472 81.1958 32.995C80.9229 33.2428 80.5956 33.4352 80.2134 33.518C80.4314 33.8755 80.6228 34.1786 80.8136 34.4538C80.9773 34.7305 81.223 35.1154 81.5231 35.583C81.8237 36.0806 82.0433 36.4086 82.1525 36.6016C81.8781 36.5736 81.6052 36.5467 81.3595 36.5467C81.1137 36.5467 80.8408 36.5736 80.5407 36.6016C80.3499 36.2984 80.1585 35.941 79.9133 35.4992C79.7768 35.253 79.6404 35.0057 79.5311 34.8128ZM88.8164 30.4065V31.0117C88.6528 30.9569 88.4614 30.9274 88.2414 30.9274H87.341V36.0232H88.1598C88.407 36.0232 88.6251 35.9963 88.8164 35.941V36.5467H86.0293V30.4065H88.8164ZM88.8164 36.5467V35.941C89.7988 35.6932 90.2918 34.8128 90.2918 33.3251C90.2918 32.4431 90.0989 31.8373 89.7167 31.4799C89.4715 31.2321 89.1709 31.0945 88.8164 31.0117V30.4065H89.0621C89.5259 30.4065 89.9897 30.5167 90.4006 30.7365C90.8084 30.9274 91.1377 31.26 91.4107 31.7002C91.6559 32.1405 91.7923 32.6645 91.7923 33.2702C91.7652 33.9034 91.6559 34.4538 91.383 34.9504C91.1377 35.4459 90.754 35.8582 90.2626 36.1355C89.8532 36.3538 89.3623 36.4914 88.8164 36.5467ZM94.8509 30.3791V32.1125L94.0321 34.1522H94.8509V34.7305H93.7864C93.7592 34.8128 93.6771 35.0326 93.5678 35.3357C93.4591 35.6384 93.377 35.8861 93.3226 36.0806C93.2677 36.2456 93.2133 36.4086 93.1584 36.6016C93.1041 36.5736 93.0205 36.5736 92.9404 36.5736C92.8311 36.5736 92.7753 36.5736 92.7219 36.5467C92.666 36.5736 92.6126 36.5736 92.5295 36.5736C92.4474 36.5736 92.3659 36.5736 92.3382 36.6016L94.8509 30.3791ZM94.8509 34.7305V34.1522H95.6711L94.8795 32.0577L94.8509 32.1125V30.3791L94.8795 30.3222C94.9324 30.3222 94.9888 30.3222 95.0417 30.3501H95.2069C95.3967 30.3501 95.5347 30.3222 95.5619 30.3222L98.0468 36.6016C97.9381 36.5736 97.8016 36.5736 97.6375 36.5736C97.4738 36.5736 97.3358 36.5736 97.2266 36.5467C97.1445 36.5736 97.0357 36.5736 96.8716 36.5736C96.7079 36.5736 96.5986 36.5736 96.5171 36.6016C96.3257 35.9684 96.1077 35.3632 95.8892 34.7305H94.8509ZM101.733 30.4065V31.0117C101.569 30.9569 101.378 30.9274 101.187 30.9274H100.259V36.0232H101.078C101.323 36.0232 101.542 35.9963 101.733 35.941V36.5467H98.9472V30.4065H101.733ZM116.181 35.1692H116.345C116.426 35.4728 116.563 35.6932 116.754 35.8861C116.972 36.0512 117.246 36.1614 117.601 36.1614C117.901 36.1614 118.12 36.0786 118.338 35.9136C118.529 35.748 118.611 35.4992 118.611 35.224C118.611 34.9778 118.529 34.7559 118.365 34.5909C118.174 34.3984 117.874 34.2334 117.436 34.0405C117.11 33.9034 116.835 33.7379 116.645 33.5728C116.426 33.4078 116.262 33.2133 116.153 32.9935C116.017 32.7457 115.962 32.4705 115.962 32.1405C115.962 31.8104 116.044 31.5073 116.181 31.2047C116.345 30.9274 116.563 30.6817 116.89 30.5167C117.19 30.3501 117.601 30.24 118.065 30.24C118.311 30.24 118.584 30.2948 118.802 30.377C119.075 30.4613 119.266 30.5426 119.43 30.6817C119.375 30.8173 119.32 30.9569 119.266 31.1204C119.212 31.26 119.184 31.425 119.13 31.5621H118.993C118.939 31.3423 118.802 31.1768 118.666 31.0117C118.474 30.8726 118.256 30.7904 118.011 30.7904C117.356 30.7904 117.027 31.0945 117.027 31.7002C117.027 32.0303 117.273 32.3329 117.792 32.6081L118.474 32.9397C118.939 33.1585 119.266 33.4352 119.43 33.7653C119.623 34.0684 119.703 34.3984 119.703 34.7838C119.703 35.088 119.623 35.3632 119.513 35.6109C119.375 35.8582 119.184 36.0512 118.966 36.2162C118.72 36.3812 118.502 36.5188 118.202 36.6016C117.929 36.6838 117.629 36.7118 117.356 36.7118C116.781 36.7118 116.317 36.5736 115.908 36.3264C116.044 35.941 116.126 35.5546 116.181 35.1692ZM109.681 34.0131C109.517 33.7104 109.353 33.4078 109.189 33.1311C109.053 32.828 108.862 32.4979 108.697 32.1405C108.507 31.7825 108.315 31.452 108.178 31.1498C108.016 30.8467 107.878 30.5994 107.769 30.4065C108.042 30.4324 108.315 30.4613 108.587 30.4613C108.862 30.4613 109.135 30.4324 109.353 30.4065C109.463 30.5715 109.571 30.7904 109.681 31.0671C109.817 31.3423 109.926 31.5901 110.063 31.8653C110.199 32.1125 110.308 32.3329 110.392 32.5258C110.472 32.7183 110.583 32.9122 110.69 33.1032C110.801 32.9661 110.937 32.7457 111.047 32.5258C111.183 32.2776 111.292 32.0303 111.402 31.8104C111.511 31.5901 111.62 31.3423 111.756 31.0117C111.893 30.7076 112.002 30.4872 112.029 30.4065C112.22 30.4324 112.357 30.4613 112.44 30.4613C112.548 30.4613 112.713 30.4324 112.904 30.4065C112.848 30.5426 112.713 30.7645 112.521 31.0671C112.357 31.3971 112.166 31.7272 111.948 32.0856C111.756 32.4431 111.593 32.7457 111.456 32.9935C111.32 33.2428 111.183 33.518 111.02 33.7932V36.6016C110.965 36.6016 110.854 36.6016 110.69 36.5736C110.527 36.5736 110.417 36.5736 110.336 36.5467C110.117 36.5736 109.899 36.6016 109.681 36.6016V34.0131ZM101.733 36.5467V35.941C102.717 35.6932 103.208 34.8112 103.208 33.3251C103.208 32.4431 103.017 31.8373 102.662 31.4799C102.389 31.2321 102.089 31.0945 101.733 31.0117V30.4065H101.978C102.471 30.4065 102.908 30.5167 103.317 30.7365C103.728 30.9274 104.083 31.26 104.328 31.7002C104.574 32.1405 104.711 32.6629 104.711 33.2687C104.711 33.9034 104.574 34.4538 104.328 34.9504C104.056 35.4459 103.699 35.8582 103.181 36.1334C102.772 36.3538 102.307 36.4914 101.733 36.5467ZM123.717 30.24V30.7904C123.063 30.8173 122.599 31.0945 122.271 31.6175C121.944 32.1679 121.778 32.8833 121.778 33.7653C121.807 34.2608 121.887 34.7011 122.053 35.059C122.217 35.4165 122.463 35.6932 122.735 35.8861C123.008 36.0786 123.308 36.1614 123.636 36.1614H123.717V36.7118H123.609C123.172 36.7118 122.681 36.629 122.19 36.464C121.671 36.2715 121.232 35.9684 120.851 35.4992C120.496 35.0326 120.305 34.4259 120.278 33.6282C120.305 33.6003 120.305 33.5454 120.305 33.518C120.305 33.1032 120.386 32.7183 120.523 32.3608C120.659 31.9754 120.851 31.6175 121.123 31.3149C121.396 30.9828 121.753 30.7365 122.19 30.5426C122.626 30.3501 123.117 30.2669 123.717 30.24ZM132.73 30.4065C132.868 30.4065 133.086 30.4324 133.386 30.4613C133.687 30.4324 133.905 30.4065 134.041 30.4065V36.6016C133.823 36.5736 133.578 36.5467 133.359 36.5467C133.139 36.5467 132.95 36.5736 132.73 36.6016V30.4065ZM128.143 30.4065C128.389 30.4324 128.606 30.4324 128.799 30.4613C128.826 30.4613 128.907 30.4613 129.072 30.4324C129.235 30.4324 129.372 30.4065 129.481 30.4065V35.9136C130.081 35.9136 130.765 35.8582 131.557 35.776C131.529 35.8862 131.502 36.0232 131.474 36.1888C131.502 36.2984 131.529 36.4086 131.529 36.5467H128.143V30.4065ZM123.717 36.7118V36.1614C124.21 36.1614 124.593 35.9963 124.865 35.6932C125.166 35.3632 125.357 34.9778 125.493 34.536C125.603 34.0958 125.657 33.683 125.657 33.2976C125.657 32.8026 125.575 32.3608 125.411 32.0024C125.275 31.6175 125.057 31.3149 124.784 31.0945C124.511 30.8726 124.183 30.7645 123.799 30.7645H123.774C123.774 30.7904 123.745 30.7904 123.717 30.7904V30.24H123.745C124.32 30.24 124.811 30.3222 125.248 30.5167C125.684 30.6817 126.039 30.9016 126.314 31.2047C126.614 31.5073 126.805 31.8373 126.941 32.2227C127.077 32.6081 127.16 33.0209 127.16 33.4627C127.16 33.9856 127.077 34.4259 126.887 34.8112C126.723 35.224 126.45 35.5546 126.149 35.8308C125.821 36.106 125.438 36.2984 125.029 36.464C124.62 36.6016 124.183 36.6838 123.717 36.7118ZM138.438 30.4065V31.0117C138.275 30.9569 138.084 30.9274 137.865 30.9274H136.965V36.0232H137.783C138.029 36.0232 138.248 35.9963 138.438 35.941V36.5467H135.626V30.4065H138.438ZM138.438 36.5467V35.941C139.421 35.6932 139.912 34.8112 139.912 33.3251C139.912 32.4431 139.723 31.8373 139.341 31.4799C139.094 31.2321 138.793 31.0945 138.438 31.0117V30.4065H138.684C139.149 30.4065 139.614 30.5167 140.023 30.7365C140.432 30.9274 140.76 31.26 141.005 31.7002C141.278 32.1405 141.388 32.6629 141.388 33.2687C141.388 33.9034 141.278 34.4538 141.005 34.9504C140.76 35.4459 140.378 35.8582 139.887 36.1334C139.476 36.3538 138.984 36.4914 138.438 36.5467ZM144.475 30.377V32.1125L143.654 34.1507H144.475V34.729H143.408C143.381 34.8112 143.3 35.0326 143.19 35.3357C143.081 35.6384 142.999 35.8861 142.945 36.0786C142.863 36.2436 142.835 36.4086 142.781 36.6016C142.726 36.5736 142.644 36.5736 142.563 36.5736C142.453 36.5736 142.399 36.5736 142.344 36.5467C142.289 36.5736 142.235 36.5736 142.153 36.5736C142.044 36.5736 141.989 36.5736 141.933 36.6016L144.475 30.377ZM144.475 34.729V34.1507H145.293L144.502 32.0577L144.475 32.1125V30.377L144.502 30.3222C144.556 30.3222 144.611 30.3222 144.665 30.3501H144.829C145.02 30.3501 145.129 30.3222 145.184 30.3222L147.669 36.6016C147.56 36.5736 147.424 36.5736 147.26 36.5736C147.096 36.5736 146.96 36.5736 146.851 36.5467C146.768 36.5736 146.659 36.5736 146.496 36.5736C146.332 36.5736 146.223 36.5736 146.139 36.6016C145.948 35.9684 145.73 35.3632 145.512 34.729H144.475ZM150.51 30.4065V30.9274C150.402 30.9016 150.264 30.9016 150.127 30.9016H149.799V33.3251H150.018C150.209 33.3251 150.372 33.2976 150.51 33.2428V34.8112C150.454 34.7011 150.372 34.5909 150.318 34.4807C150.181 34.2334 150.018 33.9856 149.854 33.7104H149.799V36.6016C149.554 36.5736 149.308 36.5467 149.144 36.5467C148.953 36.5467 148.735 36.5736 148.462 36.6016V30.4065H150.51ZM154.087 30.4065C154.224 30.4065 154.442 30.4324 154.744 30.4613C155.044 30.4324 155.262 30.4065 155.399 30.4065V36.6016C155.179 36.5736 154.933 36.5467 154.715 36.5467C154.497 36.5467 154.305 36.5736 154.087 36.6016V30.4065ZM150.51 34.8112V33.2428C150.975 33.1032 151.22 32.6924 151.22 32.0577C151.22 31.7272 151.165 31.4799 151.084 31.3149C150.975 31.1498 150.838 31.0376 150.673 30.9828C150.62 30.9569 150.564 30.9569 150.51 30.9274V30.4065H150.7C151.138 30.4065 151.438 30.4324 151.657 30.5167C151.848 30.5994 152.039 30.7076 152.23 30.9016C152.476 31.1204 152.584 31.452 152.584 31.8653C152.584 32.3608 152.448 32.7457 152.175 32.9935C151.875 33.2428 151.575 33.4352 151.193 33.518C151.411 33.8755 151.602 34.1786 151.766 34.4538C151.957 34.729 152.203 35.1154 152.503 35.583C152.804 36.0786 153.023 36.4086 153.132 36.6016C152.832 36.5736 152.584 36.5467 152.339 36.5467C152.093 36.5467 151.821 36.5736 151.52 36.6016C151.329 36.2984 151.138 35.941 150.892 35.4992C150.756 35.2515 150.62 35.0042 150.51 34.8112ZM159.796 30.4065V31.0117C159.632 30.9569 159.441 30.9274 159.223 30.9274H158.321V36.0232H159.139C159.387 36.0232 159.603 35.9963 159.796 35.941V36.5467H157.009V30.4065H159.796ZM159.796 36.5467V35.941C160.778 35.6932 161.271 34.8112 161.271 33.3251C161.271 32.4431 161.078 31.8373 160.696 31.4799C160.451 31.2321 160.15 31.0945 159.796 31.0117V30.4065H160.042C160.505 30.4065 160.969 30.5167 161.38 30.7365C161.79 30.9274 162.117 31.26 162.39 31.7002C162.636 32.1405 162.745 32.6629 162.745 33.2687C162.745 33.9034 162.636 34.4538 162.363 34.9504C162.117 35.4459 161.735 35.8582 161.242 36.1334C160.833 36.3538 160.341 36.4914 159.796 36.5467ZM165.83 30.377V32.1125L165.012 34.1507H165.83V34.729H164.766C164.739 34.8112 164.657 35.0326 164.548 35.3357C164.438 35.6384 164.357 35.8861 164.302 36.0786C164.22 36.2436 164.193 36.4086 164.138 36.6016C164.084 36.5736 164.002 36.5736 163.92 36.5736C163.811 36.5736 163.755 36.5736 163.7 36.5467C163.647 36.5736 163.592 36.5736 163.509 36.5736C163.399 36.5736 163.345 36.5736 163.291 36.6016L165.83 30.377ZM165.83 34.729V34.1507H166.651L165.857 32.0577L165.83 32.1125V30.377L165.857 30.3222C165.914 30.3222 165.966 30.3222 166.022 30.3501H166.187C166.376 30.3501 166.514 30.3222 166.542 30.3222L169.026 36.6016C168.917 36.5736 168.781 36.5736 168.617 36.5736C168.453 36.5736 168.315 36.5736 168.206 36.5467C168.124 36.5736 168.015 36.5736 167.851 36.5736C167.688 36.5736 167.578 36.5736 167.496 36.6016C167.305 35.9684 167.087 35.3632 166.869 34.729H165.83ZM172.712 30.405V31.0117C172.548 30.9554 172.357 30.9274 172.167 30.9274H171.239V36.0232H172.057C172.303 36.0232 172.521 35.9963 172.712 35.941V36.5467H169.927V30.405H172.712ZM179.212 35.1692H179.376C179.459 35.4713 179.596 35.6932 179.787 35.8846C180.005 36.0496 180.278 36.1598 180.633 36.1598C180.933 36.1598 181.178 36.0786 181.37 35.9136C181.563 35.748 181.643 35.4992 181.643 35.224C181.643 34.9763 181.563 34.7559 181.397 34.5909C181.206 34.3984 180.906 34.2334 180.497 34.0405C180.142 33.9034 179.869 33.7379 179.678 33.5728C179.459 33.4058 179.296 33.2133 179.185 32.9935C179.049 32.7457 178.994 32.4705 178.994 32.1405C178.994 31.8104 179.076 31.5073 179.212 31.2026C179.376 30.9274 179.596 30.6802 179.922 30.5152C180.25 30.3501 180.633 30.24 181.097 30.24C181.342 30.24 181.617 30.2948 181.863 30.377C182.136 30.4598 182.327 30.5426 182.49 30.6802C182.435 30.8173 182.381 30.9554 182.327 31.1204C182.272 31.26 182.244 31.423 182.19 31.5621H182.053C181.999 31.3423 181.863 31.1757 181.699 31.0117C181.506 30.8726 181.288 30.7904 181.043 30.7904C180.387 30.7904 180.06 31.0925 180.06 31.7002C180.06 32.0303 180.305 32.3329 180.824 32.6081L181.506 32.9381C181.999 33.1585 182.327 33.4352 182.517 33.7653C182.681 34.0684 182.763 34.3984 182.763 34.7838C182.763 35.0864 182.681 35.3616 182.572 35.6094C182.435 35.8582 182.244 36.0496 182.026 36.2147C181.779 36.3812 181.533 36.5188 181.233 36.6016C180.96 36.6838 180.66 36.7118 180.387 36.7118C179.812 36.7118 179.35 36.5736 178.939 36.3264C179.076 35.941 179.157 35.5546 179.212 35.1692ZM172.712 36.5467V35.941C173.696 35.6932 174.187 34.8112 174.187 33.3235C174.187 32.4431 173.996 31.8373 173.615 31.4799C173.369 31.2306 173.069 31.0925 172.712 31.0117V30.405H172.958C173.423 30.405 173.888 30.5152 174.297 30.735C174.706 30.9274 175.035 31.26 175.308 31.7002C175.553 32.1405 175.69 32.6629 175.69 33.2687C175.69 33.9034 175.553 34.4538 175.308 34.9488C175.035 35.4444 174.652 35.8582 174.16 36.1334C173.751 36.3538 173.26 36.4914 172.712 36.5467ZM186.778 30.24V30.7904C186.123 30.8173 185.658 31.0925 185.33 31.6175C185.002 32.1679 184.839 32.8833 184.839 33.7653C184.866 34.2593 184.947 34.7011 185.112 35.059C185.276 35.4165 185.521 35.6932 185.794 35.8846C186.068 36.0786 186.369 36.1598 186.696 36.1598H186.778V36.7118H186.669C186.232 36.7118 185.74 36.629 185.248 36.464C184.73 36.2715 184.293 35.9684 183.909 35.4992C183.555 35.0311 183.363 34.4259 183.336 33.6282C183.363 33.6003 183.363 33.5454 183.363 33.518C183.363 33.1032 183.445 32.7183 183.583 32.3608C183.718 31.9754 183.911 31.6175 184.184 31.3149C184.457 30.9828 184.812 30.735 185.248 30.5426C185.686 30.3501 186.178 30.2669 186.778 30.24ZM197.293 30.405C197.43 30.405 197.648 30.4324 197.948 30.4598C198.249 30.4324 198.467 30.405 198.603 30.405V36.6016C198.385 36.5736 198.139 36.5467 197.921 36.5467C197.703 36.5467 197.511 36.5736 197.293 36.6016V30.405ZM190.711 33.7104C190.738 32.801 190.929 32.0856 191.311 31.5901C191.721 31.0656 192.185 30.7076 192.705 30.5152C193.223 30.3501 193.715 30.24 194.206 30.24C194.642 30.24 195.026 30.2948 195.381 30.405C195.709 30.4872 195.954 30.5979 196.118 30.7076C196.064 30.9274 195.982 31.26 195.899 31.6175H195.79C195.599 31.3423 195.354 31.1478 195.108 31.0117C194.834 30.8726 194.588 30.7904 194.288 30.7904C193.906 30.7904 193.55 30.9016 193.223 31.1204C192.896 31.3423 192.65 31.6723 192.458 32.0856C192.294 32.4979 192.185 32.9935 192.185 33.5728C192.185 34.0684 192.267 34.5086 192.431 34.894C192.596 35.3063 192.841 35.6094 193.169 35.8308C193.496 36.0496 193.878 36.1598 194.343 36.1598C194.615 36.1598 194.888 36.105 195.19 35.9963C195.49 35.8582 195.735 35.6932 195.927 35.4992L196.064 35.5546L195.845 36.3264C195.409 36.6016 194.806 36.7118 194.096 36.7118C193.578 36.7118 193.087 36.629 192.676 36.464C192.267 36.3264 191.912 36.105 191.612 35.8308C191.311 35.5267 191.093 35.224 190.957 34.8387C190.793 34.4807 190.711 34.0958 190.711 33.7104ZM186.778 36.7118V36.1598C187.269 36.1598 187.652 35.9963 187.924 35.6932C188.226 35.3616 188.415 34.9763 188.554 34.536C188.663 34.0958 188.717 33.683 188.717 33.2956C188.717 32.8011 188.635 32.3608 188.499 32.0024C188.335 31.6175 188.115 31.3149 187.844 31.0925C187.569 30.8726 187.242 30.7624 186.86 30.7624H186.833C186.833 30.7904 186.806 30.7904 186.778 30.7904V30.24H186.806C187.379 30.24 187.87 30.3222 188.306 30.5152C188.745 30.6802 189.1 30.9016 189.373 31.2026C189.672 31.5073 189.864 31.8373 190 32.2227C190.136 32.6081 190.22 33.0209 190.22 33.4611C190.22 33.9856 190.136 34.4259 189.945 34.8112C189.781 35.224 189.509 35.5546 189.208 35.8308C188.881 36.105 188.499 36.2984 188.09 36.464C187.679 36.6016 187.242 36.6838 186.778 36.7118ZM202.099 30.377V32.1125L201.279 34.1507H202.099V34.729H201.034C200.979 34.8112 200.924 35.0311 200.815 35.3342C200.706 35.6384 200.597 35.8846 200.542 36.0786C200.488 36.2436 200.433 36.4086 200.379 36.6016C200.351 36.5736 200.269 36.5736 200.16 36.5736C200.078 36.5736 199.996 36.5736 199.942 36.5467C199.914 36.5736 199.833 36.5736 199.751 36.5736C199.669 36.5736 199.614 36.5736 199.56 36.6016L202.099 30.377ZM206.114 30.405C206.36 30.4324 206.578 30.4324 206.796 30.4598C206.796 30.4598 206.878 30.4598 207.042 30.4324C207.206 30.4324 207.342 30.405 207.451 30.405V35.9136C208.053 35.9136 208.736 35.8582 209.527 35.776C209.5 35.8846 209.473 36.0232 209.445 36.1888C209.473 36.2984 209.5 36.4086 209.5 36.5467H206.114V30.405ZM202.099 34.729V34.1507H202.918L202.099 32.0577V32.1125V30.377V30.3222C202.154 30.3222 202.208 30.3222 202.263 30.3501H202.426C202.645 30.3501 202.754 30.3222 202.781 30.3222L205.294 36.6016C205.185 36.5736 205.048 36.5736 204.857 36.5736C204.693 36.5736 204.557 36.5736 204.475 36.5467C204.393 36.5736 204.284 36.5736 204.119 36.5736C203.957 36.5736 203.819 36.5736 203.738 36.6016C203.546 35.9684 203.354 35.3616 203.109 34.729H202.099Z" fill="white"/>
<path fill-rule="evenodd" clip-rule="evenodd" d="M27.8633 13.13C27.8105 13.3971 27.5985 14.0658 27.6257 14.9736C27.6519 15.8805 28.0492 16.8416 28.2345 17.2692C29.5845 19.9384 30.6706 21.5942 31.3589 24.6118C31.8353 26.693 32.1007 27.9233 31.9949 30.0584C31.9415 30.753 31.9148 31.1272 31.7824 31.7939C31.3856 28.9114 30.936 27.2551 29.8226 24.5579C29.1872 23.0093 28.7637 22.1806 27.9429 20.7396C27.3074 19.618 25.4539 17.0554 25.2424 16.735C24.9509 16.2801 24.5269 15.3996 24.5803 14.7858C24.6331 13.9571 24.9509 13.557 25.6392 12.9421C27.3598 11.5275 29.1872 10.2195 30.591 8.93748C30.6177 8.93748 28.102 12.115 27.8633 13.13Z" fill="white"/>
<path fill-rule="evenodd" clip-rule="evenodd" d="M24.2883 30.3793C24.3941 31.608 24.0764 32.9155 23.7319 33.5827C23.5204 34.0376 23.2294 34.5459 22.8316 34.8647C22.54 35.0785 22.0904 35.2923 21.6936 35.3989C20.6603 35.638 19.9982 35.213 19.4951 35.1577C18.7806 35.0506 18.1185 35.2384 17.8531 35.3715C17.4296 35.6126 16.9004 36.0935 16.133 36.0397C15.6028 35.9864 15.1264 35.7198 14.782 35.3715C14.8082 36.0935 15.1521 36.5997 15.8676 36.9739C16.1058 37.0806 16.5816 37.1344 17.0328 37.0272C17.2977 36.948 17.5092 36.653 17.9598 36.5997C18.3833 36.521 18.5157 36.521 18.5953 36.681C18.7277 36.9206 18.0656 36.9739 18.0923 37.2684C18.1185 37.7218 19.7338 37.2684 20.2897 37.2684C20.3693 37.2684 20.4488 37.3481 20.4488 37.4548C20.4745 37.7218 20.0772 37.9097 19.8129 38.0681C19.6804 38.1494 19.0722 38.4159 18.4896 38.256C18.4624 38.256 19.6537 38.7368 20.7661 38.683C21.4282 38.6297 22.4343 38.3631 23.309 37.7752C23.9696 37.2943 24.8448 35.9589 25.2677 34.8114C26.1948 32.3021 25.7179 30.5392 25.6122 30.0584C25.4002 28.723 24.7647 27.6821 24.2355 26.8808C23.5204 25.8659 22.9378 25.4398 22.4877 25.0661C21.9318 24.6391 21.1372 24.1842 20.5284 23.9704C19.5223 23.5967 18.5691 23.517 17.7745 23.7567C17.2443 23.9445 16.7151 24.2101 16.3173 24.7975C16.0534 25.1454 16.0006 25.4398 15.9205 25.7333C15.7357 26.5071 16.5821 28.2954 16.4497 29.1505C16.3707 29.8451 15.921 30.6189 15.8676 30.753C15.4175 31.6593 15.3379 31.6339 14.9144 32.5677C14.6762 33.0485 14.7296 32.8363 14.5176 33.4501C14.6762 33.0764 15.2322 32.7296 15.7619 32.621C16.1063 32.5677 16.6355 32.6748 16.8208 32.7809C16.9799 32.8627 17.059 32.8881 17.3244 33.1556C17.4568 33.2623 17.5092 33.3689 17.6149 33.5293C17.8803 33.5029 18.0656 33.5827 18.1451 33.636C18.2247 33.6898 18.3038 33.769 18.3566 33.903C18.4095 33.9843 18.4362 34.1965 18.4896 34.3565C18.5691 34.1168 18.4896 33.769 18.4095 33.6101C18.3566 33.4501 18.198 33.2364 18.1185 33.1825C17.8269 33.0226 17.6416 32.8088 17.6416 32.5418C17.6416 32.2473 17.774 32.0868 17.9603 31.9797C17.9603 31.9797 17.9331 31.9005 17.907 31.8477C17.8803 31.7938 17.8531 31.6872 17.8531 31.7146C17.7473 31.9005 17.483 32.0614 17.2176 32.1142C17.0061 32.1676 16.7156 31.9543 16.3707 31.9284C16.1592 31.9005 16.0006 31.8731 15.7886 31.9543C15.9729 31.2597 16.3979 30.4859 17.1391 29.9243C17.6149 29.6054 17.9603 29.4988 18.4896 29.3384C18.9926 29.2043 19.2842 29.2571 19.761 29.1505C20.051 29.0713 19.9982 29.1505 20.4745 28.9367C20.7661 28.8037 21.2162 28.4026 21.5073 27.8425C21.0309 28.4026 20.3693 28.6971 19.7867 28.723C19.2041 28.7504 18.3038 28.3493 17.7473 27.9217C17.3767 27.6013 16.5565 26.5879 16.6355 25.8389C16.6617 25.2525 17.059 24.8255 17.3767 24.6391C18.0127 24.2913 18.6477 24.2913 19.257 24.4513C19.3627 24.4787 20.0772 24.665 20.7142 24.9854C21.0309 25.1454 21.9046 25.7059 22.2757 26.1075C22.9912 26.8001 23.4676 27.6013 23.6529 27.9756C24.1559 28.9906 24.2617 29.9517 24.2883 30.3793Z" fill="white"/>
<path fill-rule="evenodd" clip-rule="evenodd" d="M41.554 15.2129C41.2091 18.3645 40.8652 20.365 40.1502 23.4633C39.7 25.3852 39.1174 27.763 38.5615 29.2309C38.0318 30.6993 37.1848 33.3426 36.2311 35.1055C34.7749 37.7753 33.2919 38.442 32.524 38.8431C31.7033 39.2706 29.8759 40.017 27.7046 40.0978C28.8693 38.2297 29.3991 37.4818 29.9822 35.6382C30.6438 33.4498 30.2732 31.3939 30.168 30.8323C29.7964 29.1242 28.9232 26.748 27.4136 24.985C25.5339 22.7951 23.3883 21.0337 19.6545 19.5638C17.8277 18.8433 14.6241 18.3096 12.8764 18.1766C10.8103 17.9887 9.98905 17.908 8.21558 17.8562C6.78552 17.8288 5.24972 17.6942 4.64094 17.9887C4.34989 18.1218 4.21796 18.2284 4.00497 18.6026L3.31663 17.2688C3.07845 16.76 3.34281 16.173 3.7401 15.9593C4.21796 15.7196 4.3232 15.585 4.93199 15.3454C5.11779 15.2662 5.24972 15.2662 5.40884 15.2921C5.54026 15.2921 5.64651 15.3454 5.72657 15.4246C5.83181 15.5058 6.54785 16.0933 6.83889 16.333L8.95629 14.7853L6.4421 14.7305C6.15005 14.7305 5.88519 14.8645 5.88519 14.6787C5.88519 14.3842 6.38822 14.2771 7.28856 13.8221C7.44717 13.7429 8.16271 13.3707 9.43314 13.2895C10.8637 13.1555 12.0813 13.3159 14.2002 13.2088C16.2123 13.1296 17.9339 12.8092 18.1187 12.8092C18.013 13.1296 17.4037 13.6911 17.0069 14.0912C16.0275 15.0783 15.3382 15.3195 14.1206 16.0933C17.6686 15.0783 19.3101 13.9841 20.078 13.5033C20.7402 13.1296 21.9582 12.3024 23.1229 11.5007C26.9106 8.91116 29.4786 6.56027 32.4178 4.29113C34.722 2.50233 37.5025 1.62188 39.6471 3.22435C41.7922 4.82529 41.7388 8.29729 41.765 8.61819C41.8975 11.1529 41.7917 12.6761 41.554 15.2129ZM20.2638 40.4979C18.3569 40.4715 16.239 40.4187 14.5441 39.6702C12.2671 38.6557 10.6779 36.5994 9.96287 35.2127C8.7453 32.8882 8.32132 31.5543 7.50055 29.0435C6.75883 26.6398 6.38823 25.3852 5.88519 23.248C5.62083 22.0213 5.38265 20.9784 5.19634 19.7242C7.47436 19.5105 8.79817 19.6176 10.8899 19.7775C11.976 19.8583 13.0083 19.938 13.8552 20.0979C14.888 20.2843 16.0008 20.6854 16.1066 22.0751C16.16 22.5814 15.9741 23.3567 15.6826 23.7842C16.0275 23.5166 16.8483 23.1688 17.6691 22.9023C18.1454 22.7413 19.1515 22.6088 20.3429 22.7951C21.6672 23.0363 22.5146 23.4633 23.2559 23.9172C25.0036 24.9317 25.2423 25.3318 25.8244 25.9193C26.7242 26.8272 28.3663 29.4177 28.3663 32.5155C28.3663 34.1439 28.2087 36.5994 26.195 38.6293C24.421 40.4456 21.005 40.4979 20.2638 40.4979ZM4.34989 7.17567C4.34989 6.10584 4.82624 4.74456 5.32978 4.02406C5.49796 3.78795 5.65658 3.595 5.8293 3.42694C6.14351 3.11924 6.50353 2.89431 7.05088 2.63536C7.50055 2.42159 8.37419 2.31446 9.1426 2.3957C9.64564 2.44901 10.334 2.71608 10.9433 3.0903C11.4992 3.41018 13.8029 5.19899 16.0275 6.93448C18.4636 8.82992 20.7402 11.127 20.7402 11.127C19.6545 11.2595 16.7154 11.5271 14.5975 11.687C12.6382 11.8216 10.546 11.6611 8.40088 11.8475C7.9774 11.8749 7.15562 12.1146 6.52116 12.3816C5.83181 12.702 5.24972 13.0762 4.48182 13.8221C4.40226 12.9417 4.42895 12.6487 4.40226 11.7683C4.3232 10.0587 4.34989 9.01627 4.34989 7.17567ZM45.181 11.2615C44.9957 7.73572 44.5461 5.06647 44.0164 3.99816C43.3013 2.50232 42.2686 1.6752 41.474 1.35481C40.0973 0.820651 39.1174 0.634307 38.0318 0.553575C35.1983 0.365707 32.5774 0.339812 30.0345 0.151944C28.2082 0.0468399 27.043 0.0194215 25.0837 0.0194215C24.3687 -0.00647383 22.9386 -0.00647383 22.1178 0.0194215C21.0055 0.0468401 20.502 0.0468395 19.0991 0.0468395C17.9339 0.0468395 15.8155 0.0986279 14.5708 0.0986279C13.1936 0.0986279 7.76541 0.0727369 5.25022 0.820655C4.95918 0.899864 4.08503 1.13952 3.39618 1.56704C2.73403 1.96817 2.25818 2.55564 2.17812 2.66074C1.30447 3.73108 0.854308 5.11826 0.695692 6.50696C0.377454 9.20413 0.403636 9.8175 0.350764 10.4857C0.325083 10.672 0.245021 12.4883 0.138774 13.7962C0.0330303 15.6384 -0.019842 18.4955 0.00684566 20.6326C0.060221 24.2097 0.00684735 25.6776 0.0597192 27.6284C0.113095 28.8023 0.245022 29.6294 0.298397 31.4198C0.350766 32.4876 0.509382 34.1423 0.695189 35.3985C0.800933 36.0398 1.01242 36.9202 1.19772 37.4798C1.27779 37.8007 1.4364 38.149 1.54265 38.3887C1.86038 39.003 2.33673 39.6169 3.05176 40.2034C3.71392 40.7644 4.50851 40.9782 5.2759 41.2179C5.62033 41.2991 7.39481 41.6474 9.3274 41.8074C10.837 41.9125 12.5319 41.8866 13.0612 41.9125C16.3981 41.9673 19.443 41.9673 22.0907 41.9932C23.2559 42.0211 27.8099 41.9673 31.9943 41.7535C36.1777 41.5403 38.852 41.5129 40.3088 41.0589C41.765 40.606 41.9241 40.4994 42.6915 39.884C43.248 39.4291 43.7777 38.6557 44.1216 37.7489C44.5723 36.5465 44.8104 35.2127 44.8376 34.7313C44.9434 33.3426 45.0753 32.5693 45.181 31.206C45.2606 30.2997 45.3135 29.4446 45.3407 28.5627C45.4192 26.1331 45.4192 23.4105 45.4192 21.087C45.4192 18.4163 45.3664 14.5716 45.181 11.2615Z" fill="white"/>
</svg>
