<svg width="56" height="63" viewBox="0 0 56 63" fill="none" xmlns="http://www.w3.org/2000/svg">
<rect x="12" width="32" height="32" rx="16" fill="#F0FFFB"/>
<g filter="url(#filter0_dd_4827_62893)">
<path d="M33.6095 17.6624L32.946 18.0121V18.0121L33.6095 17.6624ZM30.8245 12.3772L31.488 12.0276V12.0276L30.8245 12.3772ZM25.1758 12.3772L24.5123 12.0276L25.1758 12.3772ZM22.3908 17.6624L23.0543 18.0121L22.3908 17.6624ZM28.8459 9.51269L29.1537 8.82876V8.82876L28.8459 9.51269ZM27.1544 9.51269L27.4622 10.1966L27.1544 9.51269ZM33.8323 21.6606L34.247 22.2855V22.2855L33.8323 21.6606ZM34.6535 20.3997L33.9125 20.2843L34.6535 20.3997ZM22.168 21.6606L21.7533 22.2855H21.7533L22.168 21.6606ZM21.3468 20.3997L22.0878 20.2843L21.3468 20.3997ZM28.7502 13.9953C28.7483 13.5811 28.411 13.2468 27.9968 13.2487C27.5826 13.2506 27.2483 13.5879 27.2502 14.0021L28.7502 13.9953ZM27.2651 17.3353C27.267 17.7495 27.6043 18.0838 28.0185 18.082C28.4327 18.0801 28.767 17.7428 28.7651 17.3286L27.2651 17.3353ZM28.7502 19.332C28.7502 18.9178 28.4144 18.582 28.0002 18.582C27.5859 18.582 27.2502 18.9178 27.2502 19.332H28.7502ZM27.2502 19.3387C27.2502 19.7529 27.5859 20.0887 28.0002 20.0887C28.4144 20.0887 28.7502 19.7529 28.7502 19.3387H27.2502ZM25.2152 22.7487H30.7852V21.2487H25.2152V22.7487ZM34.273 17.3128L31.488 12.0276L30.161 12.7268L32.946 18.0121L34.273 17.3128ZM24.5123 12.0276L21.7273 17.3128L23.0543 18.0121L25.8393 12.7268L24.5123 12.0276ZM31.488 12.0276C31.0406 11.1785 30.6809 10.4941 30.353 9.99182C30.0292 9.49591 29.6639 9.05839 29.1537 8.82876L28.5381 10.1966C28.6429 10.2438 28.8124 10.3759 29.0969 10.8118C29.3773 11.2413 29.6994 11.8508 30.161 12.7268L31.488 12.0276ZM25.8393 12.7268C26.301 11.8508 26.623 11.2413 26.9034 10.8118C27.1879 10.3759 27.3574 10.2438 27.4622 10.1966L26.8466 8.82876C26.3364 9.05839 25.9711 9.49591 25.6473 9.99182C25.3194 10.4941 24.9597 11.1785 24.5123 12.0276L25.8393 12.7268ZM29.1537 8.82876C28.4227 8.49979 27.5776 8.49979 26.8466 8.82876L27.4622 10.1966C27.8017 10.0438 28.1986 10.0438 28.5381 10.1966L29.1537 8.82876ZM30.7852 22.7487C31.6172 22.7487 32.2902 22.7494 32.817 22.7036C33.3411 22.6581 33.8332 22.5602 34.247 22.2855L33.4176 21.0357C33.322 21.0991 33.1364 21.1702 32.6872 21.2092C32.2407 21.248 31.645 21.2487 30.7852 21.2487V22.7487ZM32.946 18.0121C33.3314 18.7434 33.5947 19.2449 33.7558 19.6362C33.9176 20.0293 33.9259 20.1984 33.9125 20.2843L35.3946 20.5151C35.4721 20.0175 35.3366 19.5359 35.1429 19.0652C34.9483 18.5926 34.6442 18.0172 34.273 17.3128L32.946 18.0121ZM34.247 22.2855C34.8604 21.8785 35.2816 21.241 35.3946 20.5151L33.9125 20.2843C33.8668 20.5776 33.6939 20.8523 33.4176 21.0357L34.247 22.2855ZM25.2152 21.2487C24.3554 21.2487 23.7596 21.248 23.3131 21.2092C22.8639 21.1702 22.6783 21.0991 22.5827 21.0357L21.7533 22.2855C22.1671 22.5602 22.6592 22.6581 23.1833 22.7036C23.7101 22.7494 24.3832 22.7487 25.2152 22.7487V21.2487ZM21.7273 17.3128C21.3561 18.0172 21.052 18.5926 20.8575 19.0652C20.6637 19.5359 20.5282 20.0175 20.6057 20.5151L22.0878 20.2843C22.0745 20.1984 22.0827 20.0293 22.2445 19.6362C22.4056 19.2449 22.6689 18.7435 23.0543 18.0121L21.7273 17.3128ZM22.5827 21.0357C22.3064 20.8523 22.1335 20.5776 22.0878 20.2843L20.6057 20.5151C20.7187 21.241 21.14 21.8785 21.7533 22.2855L22.5827 21.0357ZM27.2502 14.0021L27.2651 17.3353L28.7651 17.3286L28.7502 13.9953L27.2502 14.0021ZM27.2502 19.332V19.3387H28.7502V19.332H27.2502Z" fill="#00C793"/>
</g>
<defs>
<filter id="filter0_dd_4827_62893" x="0" y="8" width="56" height="56" filterUnits="userSpaceOnUse" color-interpolation-filters="sRGB">
<feFlood flood-opacity="0" result="BackgroundImageFix"/>
<feColorMatrix in="SourceAlpha" type="matrix" values="0 0 0 0 0 0 0 0 0 0 0 0 0 0 0 0 0 0 127 0" result="hardAlpha"/>
<feMorphology radius="5" operator="erode" in="SourceAlpha" result="effect1_dropShadow_4827_62893"/>
<feOffset dy="20"/>
<feGaussianBlur stdDeviation="12.5"/>
<feComposite in2="hardAlpha" operator="out"/>
<feColorMatrix type="matrix" values="0 0 0 0 0.0627451 0 0 0 0 0.0941176 0 0 0 0 0.156863 0 0 0 0.1 0"/>
<feBlend mode="normal" in2="BackgroundImageFix" result="effect1_dropShadow_4827_62893"/>
<feColorMatrix in="SourceAlpha" type="matrix" values="0 0 0 0 0 0 0 0 0 0 0 0 0 0 0 0 0 0 127 0" result="hardAlpha"/>
<feMorphology radius="6" operator="erode" in="SourceAlpha" result="effect2_dropShadow_4827_62893"/>
<feOffset dy="8"/>
<feGaussianBlur stdDeviation="5"/>
<feComposite in2="hardAlpha" operator="out"/>
<feColorMatrix type="matrix" values="0 0 0 0 0.0627451 0 0 0 0 0.0941176 0 0 0 0 0.156863 0 0 0 0.1 0"/>
<feBlend mode="normal" in2="effect1_dropShadow_4827_62893" result="effect2_dropShadow_4827_62893"/>
<feBlend mode="normal" in="SourceGraphic" in2="effect2_dropShadow_4827_62893" result="shape"/>
</filter>
</defs>
</svg>
