<svg width="26" height="26" viewBox="0 0 26 26" fill="none" xmlns="http://www.w3.org/2000/svg">
<path d="M0 2C0 0.895429 0.895431 0 2 0H20C23.3137 0 26 2.68629 26 6V19.9998C26 23.3135 23.3137 25.9998 20 25.9998H6C2.68629 25.9998 0 23.3135 0 19.9998V2Z" fill="#5CCFBD"/>
<g style="mix-blend-mode:color-burn" opacity="0.1">
<path fill-rule="evenodd" clip-rule="evenodd" d="M25.2925 22.8289C23.8276 23.1319 22.3028 23.2919 20.7369 23.2919C9.45222 23.2919 0.30418 14.9814 0.30418 4.72989C0.30418 3.21909 0.502863 1.75045 0.877787 0.34436C0.348028 0.704118 0 1.31146 0 2.00009V19.9999C0 23.3136 2.68629 25.9999 6 25.9999H20C22.2907 25.9999 24.2816 24.7162 25.2925 22.8289Z" fill="#10A16A"/>
<path fill-rule="evenodd" clip-rule="evenodd" d="M25.2925 22.8289C23.8276 23.1319 22.3028 23.2919 20.7369 23.2919C9.45222 23.2919 0.30418 14.9814 0.30418 4.72989C0.30418 3.21909 0.502863 1.75045 0.877787 0.34436C0.348028 0.704118 0 1.31146 0 2.00009V19.9999C0 23.3136 2.68629 25.9999 6 25.9999H20C22.2907 25.9999 24.2816 24.7162 25.2925 22.8289Z" fill="#131313"/>
</g>
<circle cx="11.4175" cy="11.4175" r="5.27472" stroke="white" stroke-width="2"/>
<path d="M19.8572 19.8571L16.6924 16.6923" stroke="white" stroke-width="2" stroke-linecap="round"/>
</svg>
