<svg width="14" height="15" viewBox="0 0 14 15" fill="none" xmlns="http://www.w3.org/2000/svg">
<g clip-path="url(#clip0_2081_37850)">
<path d="M1.5 2.5C1.23478 2.5 0.98043 2.60536 0.792893 2.79289C0.605357 2.98043 0.5 3.23478 0.5 3.5V13C0.5 13.2652 0.605357 13.5196 0.792893 13.7071C0.98043 13.8946 1.23478 14 1.5 14H12.5C12.7652 14 13.0196 13.8946 13.2071 13.7071C13.3946 13.5196 13.5 13.2652 13.5 13V3.5C13.5 3.23478 13.3946 2.98043 13.2071 2.79289C13.0196 2.60536 12.7652 2.5 12.5 2.5H10.5" stroke="#A6A8AD" stroke-linecap="round" stroke-linejoin="round"/>
<path d="M3.5 1V4" stroke="#A6A8AD" stroke-linecap="round" stroke-linejoin="round"/>
<path d="M10.5 1V4" stroke="#A6A8AD" stroke-linecap="round" stroke-linejoin="round"/>
<path d="M3.5 2.5H8.5" stroke="#A6A8AD" stroke-linecap="round" stroke-linejoin="round"/>
<path d="M3.5 7C3.77614 7 4 6.77614 4 6.5C4 6.22386 3.77614 6 3.5 6C3.22386 6 3 6.22386 3 6.5C3 6.77614 3.22386 7 3.5 7Z" stroke="#A6A8AD" stroke-linecap="round" stroke-linejoin="round"/>
<path d="M7 7C7.27614 7 7.5 6.77614 7.5 6.5C7.5 6.22386 7.27614 6 7 6C6.72386 6 6.5 6.22386 6.5 6.5C6.5 6.77614 6.72386 7 7 7Z" stroke="#A6A8AD" stroke-linecap="round" stroke-linejoin="round"/>
<path d="M10.5 7C10.7761 7 11 6.77614 11 6.5C11 6.22386 10.7761 6 10.5 6C10.2239 6 10 6.22386 10 6.5C10 6.77614 10.2239 7 10.5 7Z" stroke="#A6A8AD" stroke-linecap="round" stroke-linejoin="round"/>
<path d="M3.5 11C3.77614 11 4 10.7761 4 10.5C4 10.2239 3.77614 10 3.5 10C3.22386 10 3 10.2239 3 10.5C3 10.7761 3.22386 11 3.5 11Z" stroke="#A6A8AD" stroke-linecap="round" stroke-linejoin="round"/>
<path d="M7 11C7.27614 11 7.5 10.7761 7.5 10.5C7.5 10.2239 7.27614 10 7 10C6.72386 10 6.5 10.2239 6.5 10.5C6.5 10.7761 6.72386 11 7 11Z" stroke="#A6A8AD" stroke-linecap="round" stroke-linejoin="round"/>
</g>
<defs>
<clipPath id="clip0_2081_37850">
<rect width="14" height="14" fill="white" transform="translate(0 0.5)"/>
</clipPath>
</defs>
</svg>
