<svg width="14" height="15" viewBox="0 0 14 15" fill="none" xmlns="http://www.w3.org/2000/svg">
<g clip-path="url(#clip0_2395_47917)">
<path d="M0.909708 13.06L0.499708 6.06001C0.491183 5.9895 0.49778 5.91797 0.519061 5.8502C0.540341 5.78243 0.575817 5.71998 0.623125 5.66699C0.670433 5.61401 0.728487 5.57171 0.793421 5.54292C0.858355 5.51413 0.928679 5.4995 0.999708 5.50001H5.60971C5.72179 5.50071 5.83052 5.5383 5.91909 5.60699C6.00766 5.67568 6.07114 5.77163 6.09971 5.88001L6.49971 7.50001H12.9997C13.0689 7.49979 13.1373 7.51392 13.2008 7.54151C13.2642 7.5691 13.3212 7.60955 13.3682 7.66031C13.4152 7.71106 13.4511 7.77101 13.4738 7.83637C13.4964 7.90172 13.5052 7.97107 13.4997 8.04001L13.1097 13.04C13.0896 13.2911 12.9754 13.5254 12.79 13.6959C12.6046 13.8665 12.3616 13.9608 12.1097 13.96H1.90971C1.66094 13.9613 1.42064 13.8697 1.23573 13.7033C1.05082 13.5369 0.934582 13.3075 0.909708 13.06Z" stroke="#109C9C" stroke-linecap="round" stroke-linejoin="round"/>
<path d="M3.5 3.5V1.5C3.5 1.36739 3.55268 1.24021 3.64645 1.14645C3.74021 1.05268 3.86739 1 4 1H12.5C12.6326 1 12.7598 1.05268 12.8536 1.14645C12.9473 1.24021 13 1.36739 13 1.5V5.5" stroke="#109C9C" stroke-linecap="round" stroke-linejoin="round"/>
<path d="M7.5 3.5H10.5" stroke="#109C9C" stroke-linecap="round" stroke-linejoin="round"/>
</g>
<defs>
<clipPath id="clip0_2395_47917">
<rect width="14" height="14" fill="white" transform="translate(0 0.5)"/>
</clipPath>
</defs>
</svg>
