<svg width="34" height="34" viewBox="0 0 34 34" fill="none" xmlns="http://www.w3.org/2000/svg">
<path d="M0 6C0 2.68629 2.68629 0 6 0H19.8204C27.5524 0 33.8205 6.26801 33.8205 14V19.8202C33.8205 27.5522 27.5524 33.8202 19.8205 33.8202H14C6.26802 33.8202 0 27.5522 0 19.8202V6Z" fill="#4BB98F"/>
<g style="mix-blend-mode:color-burn" opacity="0.1">
<path fill-rule="evenodd" clip-rule="evenodd" d="M0.558084 3.46582C0.199966 4.2347 0 5.09209 0 5.99619V19.8164C0 27.5484 6.26802 33.8164 14 33.8164H19.8205C23.4269 33.8164 26.7148 32.4527 29.1968 30.2129C28.464 30.268 27.7227 30.2961 26.9742 30.2961C12.2952 30.2961 0.395599 19.4859 0.395599 6.15084C0.395599 5.24327 0.450719 4.34739 0.558084 3.46582Z" fill="#4BB98F"/>
<path fill-rule="evenodd" clip-rule="evenodd" d="M0.558084 3.46582C0.199966 4.2347 0 5.09209 0 5.99619V19.8164C0 27.5484 6.26802 33.8164 14 33.8164H19.8205C23.4269 33.8164 26.7148 32.4527 29.1968 30.2129C28.464 30.268 27.7227 30.2961 26.9742 30.2961C12.2952 30.2961 0.395599 19.4859 0.395599 6.15084C0.395599 5.24327 0.450719 4.34739 0.558084 3.46582Z" fill="#131313"/>
</g>
<g clip-path="url(#clip0_1192_110617)">
<path d="M21.0425 12.7002H11.2492C10.9173 12.7002 10.6406 12.978 10.6406 13.3002C10.6406 13.6224 10.9173 13.9002 11.2492 13.9002H21.0314C21.3634 13.9002 21.64 13.6224 21.64 13.3002C21.64 12.978 21.3634 12.7002 21.0314 12.7002H21.0425Z" fill="white"/>
<path d="M11.5591 18.6445H12.9423C13.4513 18.6445 13.8608 18.2334 13.8608 17.7222V16.3334C13.8608 15.8222 13.4513 15.4111 12.9423 15.4111H11.5591C11.0501 15.4111 10.6406 15.8222 10.6406 16.3334V17.7222C10.6406 18.2334 11.0611 18.6445 11.5591 18.6445ZM11.6587 16.4445H12.8317V17.6222H11.6587V16.4445Z" fill="white"/>
<path d="M15.4321 18.6445H16.8154C17.3244 18.6445 17.7338 18.2334 17.7338 17.7222V16.3334C17.7338 15.8222 17.3244 15.4111 16.8154 15.4111H15.4321C14.9231 15.4111 14.5137 15.8222 14.5137 16.3334V17.7222C14.5137 18.2334 14.9342 18.6445 15.4321 18.6445ZM15.5428 16.4445H16.7158V17.6222H15.5428V16.4445Z" fill="white"/>
<path d="M20.7216 15.4224H19.3384C18.8294 15.4224 18.4199 15.8335 18.4199 16.3446V17.7335C18.4199 18.2446 18.8404 18.6557 19.3384 18.6557H20.7216C21.2306 18.6557 21.6401 18.2446 21.6401 17.7335V16.3446C21.6401 15.8335 21.2306 15.4224 20.7216 15.4224ZM20.622 17.6224H19.449V16.4446H20.622V17.6224Z" fill="white"/>
<path d="M11.5703 22.622H12.9535C13.4626 22.622 13.872 22.2109 13.872 21.6998V20.3109C13.872 19.7998 13.4515 19.3887 12.9535 19.3887H11.5703C11.0613 19.3887 10.6519 19.7998 10.6519 20.3109V21.6998C10.6519 22.2109 11.0613 22.622 11.5703 22.622ZM11.6699 20.422H12.8429V21.5998H11.6699V20.422Z" fill="white"/>
<path d="M15.4434 22.622H16.8266C17.3356 22.622 17.7451 22.2109 17.7451 21.6998V20.3109C17.7451 19.7998 17.3246 19.3887 16.8266 19.3887H15.4434C14.9343 19.3887 14.5249 19.7998 14.5249 20.3109V21.6998C14.5249 22.2109 14.9343 22.622 15.4434 22.622ZM15.554 20.422H16.727V21.5998H15.554V20.422Z" fill="white"/>
<path d="M22.0607 19.1113C19.9029 19.1113 18.1323 20.8891 18.1323 23.0558C18.1323 25.2224 19.9029 27.0002 22.0607 27.0002C24.2185 27.0002 25.9891 25.2224 25.9891 23.0558C25.9891 20.8891 24.2185 19.1113 22.0607 19.1113ZM24.805 23.0558C24.805 24.578 23.5767 25.8113 22.0607 25.8113C20.5447 25.8113 19.3164 24.578 19.3164 23.0558C19.3164 21.5336 20.5447 20.3002 22.0607 20.3002C23.5767 20.3002 24.805 21.5336 24.805 23.0558Z" fill="white"/>
<path d="M22.3152 21.5557C22.0718 21.5557 21.8726 21.7557 21.8726 22.0001V23.2557L21.1201 24.0112C20.943 24.189 20.943 24.4668 21.1201 24.6446C21.1976 24.7223 21.3082 24.7779 21.4299 24.7779C21.5517 24.7779 21.6623 24.7223 21.7398 24.6446L22.5365 23.8446C22.6693 23.7112 22.7468 23.5334 22.7468 23.3334V22.0112C22.7468 21.7668 22.5476 21.5668 22.3041 21.5668L22.3152 21.5557Z" fill="white"/>
<path d="M17.1473 24.1335H11.0501C9.48981 24.1335 8.21724 22.8668 8.21724 21.3112V14.2112C8.21724 12.6557 9.48981 11.389 11.0501 11.389H21.2417C22.802 11.389 24.0745 12.6557 24.0745 14.2112V18.2223C24.0745 18.5557 24.3512 18.8223 24.6721 18.8223C24.993 18.8223 25.2697 18.5446 25.2697 18.2223V14.2112C25.2697 12.4112 24.0967 10.8779 22.4589 10.3557V8.84456C22.4589 7.83345 21.6401 7.01123 20.622 7.01123C19.604 7.01123 18.7851 7.83345 18.7851 8.84456V10.1779H13.5952V8.84456C13.5952 7.83345 12.7764 7.01123 11.7583 7.01123C10.7402 7.01123 9.92137 7.83345 9.92137 8.84456V10.3335C8.23937 10.8223 7 12.3668 7 14.2223V21.3223C7 23.5557 8.80373 25.3557 11.039 25.3557H17.1473C17.4793 25.3557 17.7449 25.0779 17.7449 24.7557C17.7449 24.4335 17.4683 24.1557 17.1473 24.1557V24.1335ZM20.0134 8.83345C20.0134 8.48901 20.29 8.21123 20.6331 8.21123C20.9761 8.21123 21.2528 8.48901 21.2528 8.83345V10.1668H20.0134V8.83345ZM11.1386 8.83345C11.1386 8.48901 11.4153 8.21123 11.7583 8.21123C12.1013 8.21123 12.378 8.48901 12.378 8.83345V10.1668H11.1275V8.83345H11.1386Z" fill="white"/>
</g>
<path d="M0 6C0 2.68629 2.68629 0 6 0H19.8204C27.5524 0 33.8205 6.26801 33.8205 14V19.8202C33.8205 27.5522 27.5524 33.8202 19.8205 33.8202H14C6.26802 33.8202 0 27.5522 0 19.8202V6Z" fill="#4BB98F"/>
<g style="mix-blend-mode:color-burn" opacity="0.1">
<path fill-rule="evenodd" clip-rule="evenodd" d="M0.558084 3.46582C0.199966 4.2347 0 5.09209 0 5.99619V19.8164C0 27.5484 6.26802 33.8164 14 33.8164H19.8205C23.4269 33.8164 26.7148 32.4527 29.1968 30.2129C28.464 30.268 27.7227 30.2961 26.9742 30.2961C12.2952 30.2961 0.395599 19.4859 0.395599 6.15084C0.395599 5.24327 0.450719 4.34739 0.558084 3.46582Z" fill="#4BB98F"/>
<path fill-rule="evenodd" clip-rule="evenodd" d="M0.558084 3.46582C0.199966 4.2347 0 5.09209 0 5.99619V19.8164C0 27.5484 6.26802 33.8164 14 33.8164H19.8205C23.4269 33.8164 26.7148 32.4527 29.1968 30.2129C28.464 30.268 27.7227 30.2961 26.9742 30.2961C12.2952 30.2961 0.395599 19.4859 0.395599 6.15084C0.395599 5.24327 0.450719 4.34739 0.558084 3.46582Z" fill="#131313"/>
</g>
<g clip-path="url(#clip1_1192_110617)">
<path d="M9.14293 9.85693C8.76404 9.85693 8.40068 10.0074 8.13277 10.2753C7.86487 10.5433 7.71436 10.9066 7.71436 11.2855V24.8569C7.71436 25.2358 7.86487 25.5992 8.13277 25.8671C8.40068 26.1349 8.76404 26.2855 9.14293 26.2855H24.8572C25.2361 26.2855 25.5995 26.1349 25.8674 25.8671C26.1352 25.5992 26.2858 25.2358 26.2858 24.8569V11.2855C26.2858 10.9066 26.1352 10.5433 25.8674 10.2753C25.5995 10.0074 25.2361 9.85693 24.8572 9.85693H22.0001" stroke="white" stroke-linecap="round" stroke-linejoin="round"/>
<path d="M12 7.71436V12.0001" stroke="white" stroke-linecap="round" stroke-linejoin="round"/>
<path d="M22 7.71436V12.0001" stroke="white" stroke-linecap="round" stroke-linejoin="round"/>
<path d="M12 9.85693H19.1429" stroke="white" stroke-linecap="round" stroke-linejoin="round"/>
</g>
<path d="M17.0001 22.7145C19.367 22.7145 21.2858 20.7957 21.2858 18.4288C21.2858 16.0618 19.367 14.1431 17.0001 14.1431C14.6331 14.1431 12.7144 16.0618 12.7144 18.4288C12.7144 20.7957 14.6331 22.7145 17.0001 22.7145Z" stroke="white" stroke-linecap="round" stroke-linejoin="round"/>
<path d="M17 17V18.4286H18.4286" stroke="white" stroke-linecap="round" stroke-linejoin="round"/>
<defs>
<clipPath id="clip0_1192_110617">
<rect width="19" height="20" fill="white" transform="translate(7 7)"/>
</clipPath>
<clipPath id="clip1_1192_110617">
<rect width="20" height="20" fill="white" transform="translate(7 7)"/>
</clipPath>
</defs>
</svg>
