<svg width="14" height="15" viewBox="0 0 14 15" fill="none" xmlns="http://www.w3.org/2000/svg">
<g clip-path="url(#clip0_2678_42998)">
<path d="M6.5 9.5C7.88071 9.5 9 8.38071 9 7C9 5.61929 7.88071 4.5 6.5 4.5C5.11929 4.5 4 5.61929 4 7C4 8.38071 5.11929 9.5 6.5 9.5Z" stroke="#ADB8CC" stroke-linecap="round" stroke-linejoin="round"/>
<path d="M9.99953 10.4995L8.26953 8.76953" stroke="#A6A8AD" stroke-linecap="round" stroke-linejoin="round"/>
<path d="M12.5 1H1.5C0.947715 1 0.5 1.44772 0.5 2V13C0.5 13.5523 0.947715 14 1.5 14H12.5C13.0523 14 13.5 13.5523 13.5 13V2C13.5 1.44772 13.0523 1 12.5 1Z" stroke="#A6A8AD" stroke-linecap="round" stroke-linejoin="round"/>
</g>
<defs>
<clipPath id="clip0_2678_42998">
<rect width="14" height="14" fill="white" transform="translate(0 0.5)"/>
</clipPath>
</defs>
</svg>
