<svg width="11" height="12" viewBox="0 0 11 12" fill="none" xmlns="http://www.w3.org/2000/svg">
<g clip-path="url(#clip0_2678_12757)">
<path d="M3.92913 5.60728C5.01397 5.60728 5.89342 4.72784 5.89342 3.643C5.89342 2.55815 5.01397 1.67871 3.92913 1.67871C2.84429 1.67871 1.96484 2.55815 1.96484 3.643C1.96484 4.72784 2.84429 5.60728 3.92913 5.60728Z" stroke="#7781A5" stroke-linecap="round" stroke-linejoin="round"/>
<path d="M0.392578 11.1073H3.92829H7.46401V10.6814C7.45775 10.0825 7.29981 9.49497 7.00494 8.97365C6.71006 8.45241 6.28787 8.01435 5.77781 7.70046C5.26774 7.38657 4.68644 7.20709 4.0882 7.17876C4.03487 7.17624 3.98155 7.17492 3.92829 7.1748C3.87504 7.17492 3.82172 7.17624 3.76838 7.17876C3.17015 7.20709 2.58885 7.38657 2.07878 7.70046C1.56871 8.01435 1.14653 8.45241 0.851647 8.97365C0.556774 9.49497 0.398833 10.0825 0.392578 10.6814V11.1073Z" stroke="#7781A5" stroke-linecap="round" stroke-linejoin="round"/>
<path d="M7.07227 5.60728C8.1571 5.60728 9.03655 4.72784 9.03655 3.643C9.03655 2.55815 8.1571 1.67871 7.07227 1.67871" stroke="#7781A5" stroke-linecap="round" stroke-linejoin="round"/>
<path d="M9.03599 11.1072H10.6074V10.6813C10.6011 10.0823 10.4432 9.49486 10.1483 8.97354C9.85345 8.45229 9.43129 8.01423 8.9212 7.70035C8.59151 7.49744 8.23197 7.3507 7.85742 7.26465" stroke="#7781A5" stroke-linecap="round" stroke-linejoin="round"/>
</g>
<defs>
<clipPath id="clip0_2678_12757">
<rect width="11" height="11" fill="white" transform="translate(0 0.5)"/>
</clipPath>
</defs>
</svg>
