<svg width="11" height="12" viewBox="0 0 11 12" fill="none" xmlns="http://www.w3.org/2000/svg">
<path d="M3.92913 4.82115C5.02913 4.82115 5.89342 3.95686 5.89342 2.85686C5.89342 1.75686 5.02913 0.892578 3.92913 0.892578C2.82913 0.892578 1.96484 1.75686 1.96484 2.85686C1.96484 3.95686 2.82913 4.82115 3.92913 4.82115Z" stroke="white" stroke-linecap="round" stroke-linejoin="round"/>
<path d="M5.10686 11.1069H0.392578V9.92829C0.392578 9.29972 0.549721 8.74972 0.864007 8.19972C1.17829 7.64972 1.57115 7.25686 2.12115 6.94258C2.59258 6.62829 3.22115 6.47115 3.84972 6.39258C4.47829 6.39258 5.02829 6.47115 5.57829 6.78544" stroke="white" stroke-linecap="round" stroke-linejoin="round"/>
<path d="M4.71484 9.06445H10.2148" stroke="white" stroke-linecap="round" stroke-linejoin="round"/>
<path d="M8.64258 7.49219L10.214 9.06362L8.64258 10.635" stroke="white" stroke-linecap="round" stroke-linejoin="round"/>
</svg>
