<svg width="14" height="14" viewBox="0 0 14 14" fill="none" xmlns="http://www.w3.org/2000/svg">
<g clip-path="url(#clip0_2286_5506)">
<path d="M5 5.5C6.38071 5.5 7.5 4.38071 7.5 3C7.5 1.61929 6.38071 0.5 5 0.5C3.61929 0.5 2.5 1.61929 2.5 3C2.5 4.38071 3.61929 5.5 5 5.5Z" stroke="#54AFFF" stroke-linecap="round" stroke-linejoin="round"/>
<path d="M5 12.5002H0.5V11.9581C0.507961 11.1958 0.708977 10.4481 1.08427 9.7846C1.45957 9.12114 1.9969 8.56363 2.64607 8.16414C3.29525 7.76464 4.03509 7.53621 4.79648 7.50016C4.86436 7.49695 4.93222 7.49527 5 7.49512C5.06778 7.49527 5.13565 7.49695 5.20353 7.50016C5.96492 7.53621 6.70476 7.76464 7.35394 8.16414C7.72724 8.39386 8.06355 8.67583 8.35334 9.00016" stroke="#54AFFF" stroke-linecap="round" stroke-linejoin="round"/>
<path d="M13.4999 8L9.37988 13.5L6.62988 11.44" stroke="#54AFFF" stroke-linecap="round" stroke-linejoin="round"/>
</g>
<defs>
<clipPath id="clip0_2286_5506">
<rect width="14" height="14" fill="white"/>
</clipPath>
</defs>
</svg>
