<svg width="26" height="26" viewBox="0 0 26 26" fill="none" xmlns="http://www.w3.org/2000/svg">
<rect width="26" height="26" rx="4" fill="#C7EEE8" fill-opacity="0.6"/>
<path d="M0 2C0 0.895429 0.895431 0 2 0H20C23.3137 0 26 2.68629 26 6V19.9998C26 23.3135 23.3137 25.9998 20 25.9998H6C2.68629 25.9998 0 23.3135 0 19.9998V2Z" fill="#5CCFBD"/>
<g style="mix-blend-mode:color-burn" opacity="0.1">
<path fill-rule="evenodd" clip-rule="evenodd" d="M25.2925 22.8282C23.8276 23.1313 22.3028 23.2913 20.7369 23.2913C9.45222 23.2913 0.30418 14.9808 0.30418 4.72928C0.30418 3.21848 0.502863 1.74984 0.877787 0.34375C0.348028 0.703508 0 1.31085 0 1.99947V19.9993C0 23.313 2.68629 25.9993 6 25.9993H20C22.2907 25.9993 24.2816 24.7155 25.2925 22.8282Z" fill="#10A16A"/>
<path fill-rule="evenodd" clip-rule="evenodd" d="M25.2925 22.8282C23.8276 23.1313 22.3028 23.2913 20.7369 23.2913C9.45222 23.2913 0.30418 14.9808 0.30418 4.72928C0.30418 3.21848 0.502863 1.74984 0.877787 0.34375C0.348028 0.703508 0 1.31085 0 1.99947V19.9993C0 23.313 2.68629 25.9993 6 25.9993H20C22.2907 25.9993 24.2816 24.7155 25.2925 22.8282Z" fill="#131313"/>
</g>
<g clip-path="url(#clip0_1779_98743)">
<path d="M13 14.144C14.5779 14.144 15.8571 12.8648 15.8571 11.2868C15.8571 9.70887 14.5779 8.42969 13 8.42969C11.422 8.42969 10.1428 9.70887 10.1428 11.2868C10.1428 12.8648 11.422 14.144 13 14.144Z" stroke="white" stroke-linecap="round" stroke-linejoin="round"/>
<path d="M7.39996 20.4287C7.66227 19.137 8.36308 17.9756 9.38367 17.1414C10.4043 16.3073 11.6818 15.8516 13 15.8516C14.3181 15.8516 15.5957 16.3073 16.6163 17.1414C17.6368 17.9756 18.3377 19.137 18.6 20.4287" stroke="white" stroke-linecap="round" stroke-linejoin="round"/>
<path d="M19.2857 5.57227H6.71427C6.08309 5.57227 5.57141 6.08394 5.57141 6.71512V19.2866C5.57141 19.9177 6.08309 20.4294 6.71427 20.4294H19.2857C19.9169 20.4294 20.4286 19.9177 20.4286 19.2866V6.71512C20.4286 6.08394 19.9169 5.57227 19.2857 5.57227Z" stroke="white" stroke-linecap="round" stroke-linejoin="round"/>
</g>
<defs>
<clipPath id="clip0_1779_98743">
<rect width="16" height="16" fill="white" transform="translate(5 5)"/>
</clipPath>
</defs>
</svg>
