<svg width="14" height="14" viewBox="0 0 14 14" fill="none" xmlns="http://www.w3.org/2000/svg">
<path d="M10.1291 3.48003L7.25914 0.610025C7.22554 0.574936 7.18518 0.547012 7.14049 0.527935C7.09581 0.508858 7.04773 0.499023 6.99914 0.499023C6.95056 0.499023 6.90247 0.508858 6.85779 0.527935C6.81311 0.547012 6.77275 0.574936 6.73914 0.610025L3.86914 3.48003" stroke="#ADB8CC" stroke-linecap="round" stroke-linejoin="round"/>
<path d="M10.1291 10.52L7.25914 13.39C7.22554 13.4251 7.18518 13.453 7.14049 13.4721C7.09581 13.4912 7.04773 13.501 6.99914 13.501C6.95056 13.501 6.90247 13.4912 6.85779 13.4721C6.81311 13.453 6.77275 13.4251 6.73914 13.39L3.86914 10.52" stroke="#ADB8CC" stroke-linecap="round" stroke-linejoin="round"/>
</svg>
