<svg width="26" height="26" viewBox="0 0 26 26" fill="none" xmlns="http://www.w3.org/2000/svg">
<rect width="26" height="26" rx="4" fill="#C7EEE8" fill-opacity="0.6"/>
<path d="M0 2C0 0.895429 0.895431 0 2 0H20C23.3137 0 26 2.68629 26 6V19.9998C26 23.3135 23.3137 25.9998 20 25.9998H6C2.68629 25.9998 0 23.3135 0 19.9998V2Z" fill="#5CCFBD"/>
<g style="mix-blend-mode:color-burn" opacity="0.1">
<path fill-rule="evenodd" clip-rule="evenodd" d="M25.2925 22.8292C23.8276 23.1323 22.3028 23.2923 20.7369 23.2923C9.45222 23.2923 0.30418 14.9818 0.30418 4.73025C0.30418 3.21946 0.502863 1.75082 0.877787 0.344727C0.348028 0.704485 0 1.31182 0 2.00045V20.0002C0 23.314 2.68629 26.0002 6 26.0002H20C22.2907 26.0002 24.2816 24.7165 25.2925 22.8292Z" fill="#10A16A"/>
<path fill-rule="evenodd" clip-rule="evenodd" d="M25.2925 22.8292C23.8276 23.1323 22.3028 23.2923 20.7369 23.2923C9.45222 23.2923 0.30418 14.9818 0.30418 4.73025C0.30418 3.21946 0.502863 1.75082 0.877787 0.344727C0.348028 0.704485 0 1.31182 0 2.00045V20.0002C0 23.314 2.68629 26.0002 6 26.0002H20C22.2907 26.0002 24.2816 24.7165 25.2925 22.8292Z" fill="#131313"/>
</g>
<g clip-path="url(#clip0_905_102362)">
<path d="M15.0609 11.2856C13.4217 11.2856 12.0913 10.0056 12.0913 8.42843C12.0913 6.85129 13.4217 5.57129 15.0609 5.57129C16.7001 5.57129 18.0304 6.85129 18.0304 8.42843C18.0304 10.0056 16.7001 11.2856 15.0609 11.2856Z" stroke="white" stroke-linecap="round" stroke-linejoin="round"/>
<path d="M13.2791 20.4288H20.406V18.6688C20.406 17.8002 20.1566 16.9431 19.7171 16.1888C19.2657 15.4345 18.6361 14.7945 17.8641 14.3373C17.092 13.8802 16.213 13.6173 15.3102 13.5831C14.4075 13.5373 13.5047 13.7202 12.697 14.1088" stroke="white" stroke-linecap="round" stroke-linejoin="round"/>
<path d="M13.9088 17.4453H5.59399" stroke="white" stroke-linecap="round" stroke-linejoin="round"/>
<path d="M7.96964 15.1602L5.59399 17.4459L7.96964 19.7316" stroke="white" stroke-linecap="round" stroke-linejoin="round"/>
</g>
<defs>
<clipPath id="clip0_905_102362">
<rect width="16" height="16" fill="white" transform="translate(5 5)"/>
</clipPath>
</defs>
</svg>
