<svg width="26" height="26" viewBox="0 0 26 26" fill="none" xmlns="http://www.w3.org/2000/svg">
<rect width="26" height="26" rx="4" fill="#C7EEE8" fill-opacity="0.6"/>
<path d="M0 2C0 0.895429 0.895431 0 2 0H20C23.3137 0 26 2.68629 26 6V19.9998C26 23.3135 23.3137 25.9998 20 25.9998H6C2.68629 25.9998 0 23.3135 0 19.9998V2Z" fill="#5CCFBD"/>
<g style="mix-blend-mode:color-burn" opacity="0.1">
<path fill-rule="evenodd" clip-rule="evenodd" d="M25.2925 22.8292C23.8276 23.1323 22.3028 23.2923 20.7369 23.2923C9.45222 23.2923 0.30418 14.9818 0.30418 4.73025C0.30418 3.21946 0.502863 1.75082 0.877787 0.344727C0.348028 0.704485 0 1.31182 0 2.00045V20.0002C0 23.314 2.68629 26.0002 6 26.0002H20C22.2907 26.0002 24.2816 24.7165 25.2925 22.8292Z" fill="#10A16A"/>
<path fill-rule="evenodd" clip-rule="evenodd" d="M25.2925 22.8292C23.8276 23.1323 22.3028 23.2923 20.7369 23.2923C9.45222 23.2923 0.30418 14.9818 0.30418 4.73025C0.30418 3.21946 0.502863 1.75082 0.877787 0.344727C0.348028 0.704485 0 1.31182 0 2.00045V20.0002C0 23.314 2.68629 26.0002 6 26.0002H20C22.2907 26.0002 24.2816 24.7165 25.2925 22.8292Z" fill="#131313"/>
</g>
<g clip-path="url(#clip0_905_102354)">
<path d="M10.7143 11.2856C12.3143 11.2856 13.5715 10.0284 13.5715 8.42843C13.5715 6.82843 12.3143 5.57129 10.7143 5.57129C9.11432 5.57129 7.85718 6.82843 7.85718 8.42843C7.85718 10.0284 9.11432 11.2856 10.7143 11.2856Z" stroke="white" stroke-linecap="round" stroke-linejoin="round"/>
<path d="M12.4287 20.4284H5.57153V18.7141C5.57153 17.7999 5.8001 16.9999 6.25725 16.1999C6.71439 15.3999 7.28582 14.8284 8.08582 14.3713C8.77153 13.9141 9.68582 13.6856 10.6001 13.5713C11.5144 13.5713 12.3144 13.6856 13.1144 14.1427" stroke="white" stroke-linecap="round" stroke-linejoin="round"/>
<path d="M11.8572 17.457H19.8572" stroke="white" stroke-linecap="round" stroke-linejoin="round"/>
<path d="M17.5715 15.1709L19.8572 17.4566L17.5715 19.7423" stroke="white" stroke-linecap="round" stroke-linejoin="round"/>
</g>
<defs>
<clipPath id="clip0_905_102354">
<rect width="16" height="16" fill="white" transform="translate(5 5)"/>
</clipPath>
</defs>
</svg>
