<svg width="17" height="20" viewBox="0 0 17 20" fill="none" xmlns="http://www.w3.org/2000/svg">
<path d="M4.98889 13.4222C4.98889 13.8111 4.64444 14.1444 4.24444 14.1444H3.55556V12.7111H4.25556C4.65556 12.7111 5 13.0333 5 13.4222H4.98889ZM10.8333 6.66667H16.2889C16 5.91111 15.5556 5.21111 14.9667 4.61111L12.0667 1.7C11.4778 1.11111 10.7778 0.666667 10.0111 0.377778V5.82222C10.0111 6.27778 10.3889 6.65556 10.8444 6.65556L10.8333 6.66667ZM8.41111 12.7111H7.71111V15.6222H8.41111C8.81111 15.6222 9.15555 15.3 9.15555 14.9V13.4111C9.15555 13.0222 8.81111 12.7 8.41111 12.7V12.7111ZM16.6667 8.74444V15.8333C16.6667 18.1333 14.8 20 12.5 20H4.16667C1.86667 20 0 18.1333 0 15.8333V4.16667C0 1.86667 1.86667 0 4.16667 0H7.92222C8.05556 0 8.18889 0 8.33333 0.0111111V5.83333C8.33333 7.21111 9.45555 8.33333 10.8333 8.33333H16.6444C16.6444 8.46667 16.6667 8.6 16.6667 8.74444ZM6.02222 13.4222C6.02222 12.4556 5.22222 11.6667 4.23333 11.6667H3.32222C2.86667 11.6667 2.48889 12.0444 2.48889 12.5V16.2C2.48889 16.4889 2.72222 16.7222 3 16.7222C3.27778 16.7222 3.51111 16.4889 3.51111 16.2V15.1889H4.21111C5.2 15.1889 6 14.4 6 13.4333L6.02222 13.4222ZM10.1889 13.4222C10.1889 12.4556 9.38889 11.6667 8.4 11.6667H7.48889C7.03333 11.6667 6.65555 12.0444 6.65555 12.5V16.2C6.65555 16.4889 6.88889 16.6667 7.16667 16.6667H8.38889C9.37778 16.6667 10.1778 15.8778 10.1778 14.9111V13.4222H10.1889ZM14.1889 12.1889C14.1889 11.9 13.9556 11.6778 13.6667 11.6778H11.7444C11.4556 11.6778 11.2333 11.9111 11.2333 12.1889V16.2C11.2333 16.4889 11.4667 16.7222 11.7444 16.7222C12.0222 16.7222 12.2667 16.4889 12.2667 16.2V14.7H13.3C13.5889 14.7 13.8222 14.4667 13.8222 14.1778C13.8222 13.8889 13.5889 13.6556 13.3 13.6556H12.2667V12.7H13.6778C13.9667 12.7 14.2 12.4667 14.2 12.1889H14.1889Z" fill="#E4496D"/>
</svg>
