<svg width="26" height="26" viewBox="0 0 26 26" fill="none" xmlns="http://www.w3.org/2000/svg">
<rect width="26" height="26" rx="4" fill="#C7EEE8" fill-opacity="0.6"/>
<path d="M0 2C0 0.895429 0.895431 0 2 0H20C23.3137 0 26 2.68629 26 6V19.9998C26 23.3135 23.3137 25.9998 20 25.9998H6C2.68629 25.9998 0 23.3135 0 19.9998V2Z" fill="#5CCFBD"/>
<g style="mix-blend-mode:color-burn" opacity="0.1">
<path fill-rule="evenodd" clip-rule="evenodd" d="M25.2925 22.8292C23.8276 23.1323 22.3028 23.2923 20.7369 23.2923C9.45222 23.2923 0.30418 14.9818 0.30418 4.73025C0.30418 3.21946 0.502863 1.75082 0.877787 0.344727C0.348028 0.704485 0 1.31182 0 2.00045V20.0002C0 23.314 2.68629 26.0002 6 26.0002H20C22.2907 26.0002 24.2816 24.7165 25.2925 22.8292Z" fill="#10A16A"/>
<path fill-rule="evenodd" clip-rule="evenodd" d="M25.2925 22.8292C23.8276 23.1323 22.3028 23.2923 20.7369 23.2923C9.45222 23.2923 0.30418 14.9818 0.30418 4.73025C0.30418 3.21946 0.502863 1.75082 0.877787 0.344727C0.348028 0.704485 0 1.31182 0 2.00045V20.0002C0 23.314 2.68629 26.0002 6 26.0002H20C22.2907 26.0002 24.2816 24.7165 25.2925 22.8292Z" fill="#131313"/>
</g>
<path d="M10.7143 12.4282C12.2923 12.4282 13.5715 11.149 13.5715 9.57101C13.5715 7.99306 12.2923 6.71387 10.7143 6.71387C9.13637 6.71387 7.85718 7.99306 7.85718 9.57101C7.85718 11.149 9.13637 12.4282 10.7143 12.4282Z" stroke="white" stroke-linecap="round" stroke-linejoin="round"/>
<path d="M5.57153 20.429H10.7144H15.8572V19.8095C15.8481 18.9383 15.6184 18.0838 15.1895 17.3255C14.7606 16.5673 14.1465 15.9301 13.4046 15.4736C12.6627 15.017 11.8171 14.7559 10.947 14.7147C10.8694 14.7111 10.7919 14.7092 10.7144 14.709C10.6369 14.7092 10.5594 14.7111 10.4818 14.7147C9.61164 14.7559 8.7661 15.017 8.02418 15.4736C7.28228 15.9301 6.66818 16.5673 6.23927 17.3255C5.81036 18.0838 5.58063 18.9383 5.57153 19.8095V20.429Z" stroke="white" stroke-linecap="round" stroke-linejoin="round"/>
<path d="M15.2856 12.4282C16.8636 12.4282 18.1428 11.149 18.1428 9.57101C18.1428 7.99306 16.8636 6.71387 15.2856 6.71387" stroke="white" stroke-linecap="round" stroke-linejoin="round"/>
<path d="M18.1428 20.429H20.4285V19.8095C20.4193 18.9383 20.1896 18.0838 19.7607 17.3255C19.3318 16.5673 18.7177 15.9302 17.9758 15.4736C17.4962 15.1784 16.9733 14.965 16.4285 14.8398" stroke="white" stroke-linecap="round" stroke-linejoin="round"/>
</svg>
